<?xml version="1.0" encoding="UTF-8"?>
<!DOCTYPE svg PUBLIC "-//W3C//DTD SVG 1.1//EN" "http://www.w3.org/Graphics/SVG/1.1/DTD/svg11.dtd">
<svg xmlns="http://www.w3.org/2000/svg" version="1.1" width="648px" height="169px" style="shape-rendering:geometricPrecision; text-rendering:geometricPrecision; image-rendering:optimizeQuality; fill-rule:evenodd; clip-rule:evenodd" xmlns:xlink="http://www.w3.org/1999/xlink">
<g><path style="opacity:1" fill="#fcfefc" d="M 43.5,-0.5 C 44.5,-0.5 45.5,-0.5 46.5,-0.5C 52.2847,16.4094 60.9513,17.9094 72.5,4C 73.8333,3.33333 75.1667,3.33333 76.5,4C 77.9759,10.7064 78.9759,17.5398 79.5,24.5C 104.303,33.1073 112.803,49.774 105,74.5C 100.876,80.9576 95.7098,86.4576 89.5,91C 94.046,95.8774 98.2127,101.044 102,106.5C 105.179,119 101.012,122.833 89.5,118C 82.6834,112.35 76.3501,106.184 70.5,99.5C 65.544,98.5059 60.544,98.1725 55.5,98.5C 56.4157,107.003 54.4157,114.836 49.5,122C 45.577,122.793 41.7436,122.626 38,121.5C 32.963,109.113 31.1296,96.2795 32.5,83C 31.8074,70.1638 30.9741,57.3305 30,44.5C 23.7786,35.2211 17.9453,25.7211 12.5,16C 12.7692,14.3925 13.6026,13.2259 15,12.5C 18.2534,14.5431 21.4201,16.7098 24.5,19C 28.1084,20.3228 31.7751,20.9895 35.5,21C 38.8582,14.05 41.5248,6.88335 43.5,-0.5 Z M 45.5,10.5 C 49.2155,18.0264 55.2155,20.8598 63.5,19C 64.4162,18.6258 65.2496,18.1258 66,17.5C 66.4935,19.1341 66.6602,20.8008 66.5,22.5C 58.1212,22.4636 49.7878,22.6303 41.5,23C 43.9889,19.2137 45.3222,15.047 45.5,10.5 Z M 72.5,15.5 C 73.7969,17.6934 73.7969,20.0268 72.5,22.5C 71.9426,20.2825 71.9426,17.9491 72.5,15.5 Z M 23.5,24.5 C 26.5559,25.2964 29.5559,26.2964 32.5,27.5C 30.8893,30.2198 30.056,33.2198 30,36.5C 27.0311,32.8929 24.8644,28.8929 23.5,24.5 Z M 50.5,38.5 C 61.1095,37.9217 71.1095,40.0883 80.5,45C 90.6791,53.6024 91.0125,62.6024 81.5,72C 72.75,76.6875 63.4166,79.1875 53.5,79.5C 53.0091,66.9153 51.6758,54.4153 49.5,42C 49.6483,40.7441 49.9816,39.5774 50.5,38.5 Z"/></g>
<g><path style="opacity:1" fill="#fefffe" d="M 94.5,9.5 C 96.1667,9.5 97.8333,9.5 99.5,9.5C 99.5,10.5 99.5,11.5 99.5,12.5C 95.9925,13.1154 92.6591,14.1154 89.5,15.5C 89.3505,14.448 89.5172,13.448 90,12.5C 91.6516,11.6006 93.1516,10.6006 94.5,9.5 Z"/></g>
<g><path style="opacity:1" fill="#fcfefc" d="M 353.5,17.5 C 365.43,14.9428 370.93,19.6094 370,31.5C 364.763,35.7988 358.93,36.6322 352.5,34C 350.026,31.9589 349.026,29.2923 349.5,26C 348.748,22.0363 350.081,19.2029 353.5,17.5 Z"/></g>
<g><path style="opacity:1" fill="#fefffe" d="M 88.5,18.5 C 93.2153,18.506 97.882,19.006 102.5,20C 102.957,20.414 103.291,20.914 103.5,21.5C 98.6009,21.7608 93.6009,21.7608 88.5,21.5C 88.5,20.5 88.5,19.5 88.5,18.5 Z"/></g>
<g><path style="opacity:1" fill="#fcfefc" d="M 250.5,20.5 C 253.518,20.3354 256.518,20.502 259.5,21C 261.049,22.214 262.215,23.714 263,25.5C 263.913,32.4834 263.413,39.3167 261.5,46C 273.518,45.0005 285.518,45.3338 297.5,47C 313.649,52.4887 323.482,63.6554 327,80.5C 330.947,106.86 320.114,123.36 294.5,130C 288.718,131.423 282.885,132.59 277,133.5C 264.565,130.744 252.399,127.078 240.5,122.5C 239.813,120.726 238.98,119.059 238,117.5C 237.335,96.7946 238.002,76.128 240,55.5C 240.794,47.7384 242.127,40.0717 244,32.5C 245.402,28.0252 247.569,24.0252 250.5,20.5 Z M 268.5,64.5 C 282.191,64.0056 294.024,68.3389 304,77.5C 309.46,89.5432 306.96,99.7099 296.5,108C 283.598,115.764 271.098,115.264 259,106.5C 258.414,94.9426 259.748,83.6093 263,72.5C 264.273,69.4027 266.107,66.7361 268.5,64.5 Z"/></g>
<g><path style="opacity:1" fill="#fefffe" d="M 1.5,31.5 C 6.53713,31.0415 11.2038,32.0415 15.5,34.5C 11.8391,35.452 8.17242,35.2853 4.5,34C 2.88066,33.7645 1.88066,32.9311 1.5,31.5 Z"/></g>
<g><path style="opacity:1" fill="#fefffe" d="M -0.5,45.5 C -0.5,44.5 -0.5,43.5 -0.5,42.5C 3.92502,40.2936 8.59168,38.627 13.5,37.5C 14.2824,39.3293 13.6157,40.8293 11.5,42C 7.55317,43.4838 3.55317,44.6505 -0.5,45.5 Z"/></g>
<g><path style="opacity:1" fill="#fcfefc" d="M 168.5,39.5 C 189.865,36.591 204.698,44.9243 213,64.5C 218.508,85.5517 219.841,106.885 217,128.5C 215.588,134.959 212.088,136.625 206.5,133.5C 203.949,127.415 202.282,121.082 201.5,114.5C 189.445,126.408 175.112,130.241 158.5,126C 140.251,122.75 129.751,111.916 127,93.5C 123.616,77.5217 127.45,63.6884 138.5,52C 147.72,45.7655 157.72,41.5989 168.5,39.5 Z M 168.5,58.5 C 189.553,56.0535 198.72,65.3868 196,86.5C 194.078,92.4299 190.578,97.2632 185.5,101C 181.081,103.627 176.581,106.127 172,108.5C 152.226,105.353 143.893,93.6861 147,73.5C 148.4,70.0976 150.567,67.2643 153.5,65C 158.367,62.2259 163.367,60.0593 168.5,58.5 Z"/></g>
<g><path style="opacity:1" fill="#fcfefc" d="M 429.5,41.5 C 435.929,40.6977 441.929,41.8644 447.5,45C 451.5,48.6667 451.5,52.3333 447.5,56C 441.188,59.3264 434.521,61.6597 427.5,63C 426.624,64.586 425.624,66.086 424.5,67.5C 428.631,77.4496 433.798,86.783 440,95.5C 443.217,110.233 438.05,120.733 424.5,127C 420.137,128.899 415.637,130.399 411,131.5C 406.347,130.617 402.014,128.95 398,126.5C 397.333,123.167 397.333,119.833 398,116.5C 403.306,112.429 409.139,109.263 415.5,107C 416.358,105.43 417.025,103.763 417.5,102C 411.796,94.7691 406.962,86.9358 403,78.5C 398.182,62.9085 403.015,51.7419 417.5,45C 421.623,43.8077 425.623,42.641 429.5,41.5 Z"/></g>
<g><path style="opacity:1" fill="#fcfefc" d="M 499.5,45.5 C 508.506,45.3336 517.506,45.5002 526.5,46C 528.667,48.1667 530.833,50.3333 533,52.5C 534.091,57.0976 532.257,59.9309 527.5,61C 519.487,62.9019 511.487,64.7352 503.5,66.5C 499.917,71.1646 497.251,76.3313 495.5,82C 497.09,92.1922 501.757,100.526 509.5,107C 519.833,107.62 530.166,108.286 540.5,109C 543.462,113.99 543.128,118.656 539.5,123C 527.856,127.785 515.856,128.785 503.5,126C 490.222,121.384 481.722,112.218 478,98.5C 471.273,79.7166 475.439,63.5499 490.5,50C 493.592,48.4541 496.592,46.9541 499.5,45.5 Z"/></g>
<g><path style="opacity:1" fill="#fcfefc" d="M 647.5,70.5 C 647.5,79.8333 647.5,89.1667 647.5,98.5C 644.653,110.522 637.32,118.689 625.5,123C 620.59,124.803 615.59,126.303 610.5,127.5C 597.392,125.11 585.726,119.776 575.5,111.5C 568.013,103.708 564.679,94.3744 565.5,83.5C 565.206,64.2739 574.539,52.4406 593.5,48C 597.9,47.0223 602.067,47.5223 606,49.5C 621.232,45.5786 633.899,49.912 644,62.5C 645.478,65.1579 646.645,67.8245 647.5,70.5 Z M 599.5,64.5 C 627.548,63.923 635.381,76.2563 623,101.5C 618.078,106.202 612.245,107.702 605.5,106C 590.175,102.493 583.342,92.9928 585,77.5C 588.162,71.1641 592.996,66.8308 599.5,64.5 Z"/></g>
<g><path style="opacity:1" fill="#fcfefc" d="M 356.5,48.5 C 364.173,47.6681 369.007,51.0015 371,58.5C 375.569,77.5638 377.236,96.8971 376,116.5C 371.538,121.166 366.371,122.333 360.5,120C 357.943,119.315 356.109,117.815 355,115.5C 352.697,94.1407 351.531,72.8073 351.5,51.5C 353.396,50.7255 355.063,49.7255 356.5,48.5 Z"/></g>
<g><path style="opacity:1" fill="#fefffe" d="M 610.5,76.5 C 612.167,76.5 613.833,76.5 615.5,76.5C 615.5,78.5 615.5,80.5 615.5,82.5C 611.092,82.938 609.425,80.938 610.5,76.5 Z"/></g>
<g><path style="opacity:1" fill="#fefffe" d="M 601.5,77.5 C 604.857,78.1212 606.024,80.1212 605,83.5C 603.301,84.4061 601.467,84.7394 599.5,84.5C 599.185,81.7892 599.852,79.4559 601.5,77.5 Z"/></g>
<g><path style="opacity:1" fill="#fefffe" d="M 613.5,94.5 C 615.256,95.5521 615.923,97.2188 615.5,99.5C 610.821,99.6658 606.155,99.4992 601.5,99C 600.167,98 600.167,97 601.5,96C 605.688,95.8238 609.688,95.3238 613.5,94.5 Z"/></g>
<g><path style="opacity:1" fill="#fefffe" d="M 269.5,168.5 C 265.833,168.5 262.167,168.5 258.5,168.5C 256.657,167.717 254.657,167.05 252.5,166.5C 251.289,165.726 251.289,164.893 252.5,164C 242.262,164.541 232.262,166.041 222.5,168.5C 215.833,168.5 209.167,168.5 202.5,168.5C 201.192,167.768 199.858,166.934 198.5,166C 205.183,162.884 212.183,160.55 219.5,159C 192.879,160.679 166.545,163.846 140.5,168.5C 133.5,168.5 126.5,168.5 119.5,168.5C 118.909,167.849 118.243,167.182 117.5,166.5C 118.587,164.895 117.921,164.229 115.5,164.5C 104.174,166.67 92.8404,167.17 81.5,166C 80.3279,165.581 79.3279,164.915 78.5,164C 80.6188,161.607 83.2855,160.274 86.5,160C 71.104,161.398 55.7707,163.565 40.5,166.5C 37.8236,166.163 35.157,165.83 32.5,165.5C 32.33,164.178 32.6634,163.011 33.5,162C 61.6432,155.616 90.1432,151.449 119,149.5C 123.545,149.603 128.045,150.103 132.5,151C 135.167,152.333 135.167,153.667 132.5,155C 133.833,155.167 135.167,155.333 136.5,155.5C 151.404,152.871 166.404,152.037 181.5,153C 183.289,153.914 185.123,154.747 187,155.5C 207.053,152.283 227.22,151.116 247.5,152C 250.98,152.914 254.313,154.081 257.5,155.5C 277.999,151.55 298.666,150.05 319.5,151C 322.027,151.513 324.193,152.68 326,154.5C 348.582,151.674 371.248,149.674 394,148.5C 399.213,148.546 404.38,149.046 409.5,150C 413.5,151.333 413.5,152.667 409.5,154C 438.145,151.703 466.812,149.203 495.5,146.5C 500.724,146.711 505.891,147.378 511,148.5C 528.805,145.598 546.638,145.098 564.5,147C 568.5,148.333 568.5,149.667 564.5,151C 566.5,151.167 568.5,151.333 570.5,151.5C 585.471,149.835 600.471,149.002 615.5,149C 617.592,149.953 617.925,151.286 616.5,153C 568.969,157.53 521.469,162.364 474,167.5C 469.48,166.878 464.98,166.211 460.5,165.5C 460.36,163.876 461.027,162.71 462.5,162C 465.789,161.118 469.123,160.452 472.5,160C 462,160.457 451.5,161.29 441,162.5C 435.501,162.291 430.167,161.291 425,159.5C 402.211,161.996 379.378,163.996 356.5,165.5C 352.431,165.496 348.431,164.996 344.5,164C 343.833,163.333 343.167,162.667 342.5,162C 344.49,160.249 346.823,159.249 349.5,159C 322.56,160.752 295.894,163.918 269.5,168.5 Z"/></g>
</svg>
