<svg xmlns="http://www.w3.org/2000/svg" width="648" height="169" viewBox="0 0 648 169">
<g>
<path d="M 119.12 168.10 C118.36,167.62 118.05,166.72 118.43,166.11 C119.28,164.74 119.26,164.74 104.00,166.41 C92.17,167.70 83.08,167.40 80.20,165.62 C78.37,164.49 80.40,162.26 84.38,161.02 C89.36,159.47 79.10,160.74 59.00,164.16 C40.15,167.37 32.59,167.37 33.20,164.18 C33.69,161.67 38.67,160.42 63.71,156.57 C103.52,150.45 126.18,148.83 133.35,151.58 C135.87,152.55 135.32,154.71 132.25,155.90 L 129.50 156.98 L 132.50 156.53 C157.38,152.85 183.13,151.96 184.83,154.72 C185.42,155.68 189.87,155.50 205.04,153.91 C229.14,151.40 248.94,151.56 253.50,154.32 C256.42,156.09 256.95,156.08 271.50,153.99 C287.58,151.69 313.39,150.29 319.32,151.40 C321.31,151.77 323.54,152.68 324.27,153.41 C325.38,154.53 328.67,154.45 344.05,152.95 C388.03,148.67 405.74,148.18 411.23,151.12 C413.32,152.24 413.33,152.29 411.43,153.74 C409.66,155.09 409.88,155.17 414.00,154.65 C416.48,154.33 436.27,152.41 457.99,150.38 C492.09,147.18 498.37,146.83 504.07,147.80 C509.23,148.69 513.91,148.62 525.58,147.49 C549.52,145.17 565.50,145.76 567.53,149.06 C567.87,149.60 566.65,150.72 564.82,151.55 L 561.50 153.06 L 564.50 152.58 C572.49,151.29 612.84,148.74 615.32,149.36 C619.55,150.43 618.46,153.28 613.49,154.12 C608.75,154.93 576.06,157.97 534.50,161.49 C518.00,162.88 499.55,164.75 493.50,165.63 C475.59,168.26 461.00,167.75 461.00,164.49 C461.00,163.19 464.68,161.79 471.00,160.70 L 473.50 160.27 L 471.00 160.14 C469.62,160.07 463.12,160.69 456.54,161.51 C441.85,163.34 436.66,163.33 431.50,161.47 C427.91,160.17 424.70,160.29 400.00,162.61 C367.82,165.63 347.17,166.20 344.67,164.14 C342.57,162.40 343.28,161.28 347.30,160.05 C350.02,159.22 349.67,159.15 345.00,159.55 C331.03,160.76 292.12,165.27 279.50,167.13 C262.53,169.64 251.06,168.89 252.41,165.37 C253.12,163.52 251.95,163.60 235.00,166.50 C219.76,169.11 205.99,169.71 201.40,167.96 C197.46,166.46 199.17,165.36 210.59,162.01 C216.04,160.42 219.73,159.09 218.80,159.06 C215.82,158.96 173.53,163.91 155.18,166.50 C137.39,169.02 121.67,169.71 119.12,168.10 ZM 208.29 135.20 C206.29,133.93 204.01,127.37 203.34,120.99 C203.00,117.70 202.52,115.00 202.29,115.00 C202.05,115.00 199.75,116.75 197.18,118.89 C187.70,126.76 180.92,128.51 165.48,127.04 C147.72,125.36 138.07,119.83 132.13,107.94 C128.03,99.75 126.72,92.49 127.16,80.52 C127.49,71.51 127.90,69.65 130.81,63.73 C134.57,56.10 139.65,51.27 148.50,46.94 C163.68,39.51 182.71,37.95 194.15,43.20 C205.44,48.39 213.14,59.95 216.66,77.00 C218.91,87.91 219.26,124.35 217.17,130.26 C215.44,135.15 211.59,137.29 208.29,135.20 ZM 188.73 98.69 C194.51,93.39 196.95,88.12 196.98,80.88 C197.02,71.25 193.31,63.79 186.80,60.40 C183.31,58.59 171.88,58.60 165.85,60.43 C151.97,64.65 147.00,70.14 147.00,81.27 C147.00,96.64 155.81,107.00 168.87,107.00 C170.59,107.00 172.00,107.46 172.00,108.01 C172.00,109.75 183.93,103.10 188.73,98.69 ZM 270.00 132.44 C266.98,131.62 258.99,129.13 252.25,126.89 C242.44,123.64 240.00,122.46 240.00,120.98 C240.00,119.95 239.55,118.84 239.00,118.50 C236.85,117.17 238.63,68.41 241.57,48.34 C243.38,35.95 245.25,29.41 248.27,24.91 C250.25,21.97 251.20,21.46 255.17,21.20 C259.16,20.94 260.06,21.26 261.89,23.58 C263.56,25.71 264.00,27.64 263.98,32.88 C263.96,36.52 263.59,41.08 263.14,43.00 L 262.32 46.51 L 277.21 46.14 C290.38,45.82 292.88,46.03 298.87,47.96 C307.57,50.76 314.44,55.96 319.63,63.67 C327.27,75.05 329.33,85.24 326.94,99.97 C324.35,115.92 313.72,125.60 293.00,130.86 C281.64,133.75 276.21,134.12 270.00,132.44 ZM 289.03 111.83 C296.61,109.27 304.29,102.69 306.10,97.21 C307.93,91.65 307.59,83.69 305.35,79.85 C301.02,72.45 288.91,66.46 275.95,65.32 C269.52,64.75 269.34,64.80 266.72,67.92 C262.99,72.35 261.08,79.49 259.77,93.79 C258.47,108.07 258.31,107.71 267.58,111.52 C274.93,114.54 280.76,114.63 289.03,111.83 ZM 406.50 130.63 C398.73,128.14 398.00,127.41 398.00,122.12 C398.00,116.29 398.86,115.39 409.16,110.50 C419.42,105.63 419.79,104.16 413.06,95.08 C410.30,91.35 406.62,85.28 404.89,81.58 C402.04,75.48 401.79,74.18 402.22,67.54 C402.81,58.24 405.21,53.47 411.42,49.26 C417.32,45.26 424.34,43.06 433.55,42.31 C440.78,41.73 444.79,42.87 449.25,46.78 C451.87,49.07 451.47,53.49 448.42,55.89 C445.50,58.18 437.13,61.51 431.72,62.53 C429.48,62.95 427.48,64.14 426.48,65.67 C424.96,68.00 425.03,68.46 427.84,74.47 C429.47,77.95 433.10,84.38 435.90,88.75 C440.78,96.36 441.00,97.00 441.00,103.64 C441.00,115.70 434.40,124.07 421.04,128.93 C413.09,131.82 410.99,132.07 406.50,130.63 ZM 507.98 127.09 C492.20,124.87 481.74,112.68 476.09,89.96 L 473.97 81.41 L 476.09 74.98 C480.70,60.91 486.95,52.34 495.50,48.35 C499.93,46.29 501.99,46.02 513.55,46.01 L 526.59 46.00 L 530.30 49.79 C534.86,54.46 535.05,57.39 530.96,59.88 C528.16,61.58 518.42,64.01 508.43,65.51 C504.83,66.05 503.99,66.72 501.23,71.31 C495.91,80.14 495.66,81.51 497.92,88.93 C500.47,97.33 504.78,104.08 509.39,106.93 C512.85,109.07 513.65,109.15 525.89,108.47 C538.16,107.79 538.85,107.85 540.88,109.88 C543.64,112.64 543.83,119.94 541.20,122.32 C536.44,126.63 520.76,128.88 507.98,127.09 ZM 603.19 126.05 C585.85,121.10 574.36,112.98 569.12,102.00 C566.71,96.93 566.50,95.47 566.51,83.50 C566.52,68.78 567.54,65.67 574.67,58.81 C582.26,51.49 599.17,45.88 604.70,48.84 C606.11,49.60 607.01,49.59 607.76,48.84 C608.40,48.20 611.80,47.92 616.20,48.15 C625.66,48.62 634.72,52.86 641.28,59.87 C647.37,66.38 648.26,70.10 647.84,87.44 C647.52,100.47 647.29,101.92 644.68,107.24 C640.37,116.02 632.60,121.59 618.64,125.89 C610.61,128.36 611.25,128.36 603.19,126.05 ZM 620.03 104.75 C625.47,101.07 628.39,94.00 628.45,84.33 C628.51,74.81 627.07,72.03 620.04,68.11 C614.84,65.20 604.12,64.14 598.56,65.98 C594.15,67.44 588.48,72.17 586.45,76.10 C584.74,79.41 584.59,84.99 586.08,90.35 C589.42,102.36 610.40,111.26 620.03,104.75 ZM 37.61 120.21 C34.48,114.17 32.72,101.74 32.40,83.50 C31.84,51.71 31.22,45.60 28.10,41.27 C26.60,39.20 25.11,36.78 24.78,35.90 C24.45,35.02 21.66,30.58 18.59,26.04 C15.51,21.50 13.00,16.98 13.00,16.00 C13.00,12.91 15.60,13.04 20.70,16.39 C23.40,18.17 27.76,20.23 30.37,20.96 C36.49,22.68 37.19,21.99 40.05,11.50 C42.77,1.54 43.28,0.50 45.51,0.50 C46.67,0.50 48.39,2.58 50.46,6.50 C55.42,15.90 60.44,16.41 69.03,8.38 C76.72,1.18 78.71,2.93 78.90,17.03 L 79.00 24.55 L 85.75 27.48 C93.89,31.00 102.50,39.10 106.50,47.00 C108.97,51.87 109.19,53.16 108.78,60.44 C108.18,71.01 105.49,76.65 97.04,85.04 L 90.45 91.57 L 96.72 99.51 C102.61,106.95 103.00,107.77 103.00,112.65 C103.00,125.70 93.59,123.65 77.64,107.14 L 69.78 99.00 L 63.05 99.00 L 56.32 99.00 L 56.25 103.43 C56.17,108.67 53.72,117.58 51.48,120.75 C50.16,122.61 48.95,123.00 44.47,123.00 C39.55,123.00 38.92,122.74 37.61,120.21 ZM 71.21 77.02 C86.39,72.33 92.22,63.29 87.01,52.53 C84.28,46.89 77.71,42.78 67.81,40.52 C60.34,38.83 51.42,38.51 50.55,39.91 C50.24,40.42 50.89,47.86 51.99,56.45 C53.10,65.05 54.00,73.92 54.00,76.18 L 54.00 80.28 L 59.38 79.64 C62.33,79.30 67.66,78.11 71.21,77.02 ZM 32.22 29.23 C33.48,27.72 33.72,27.90 27.77,25.87 L 23.04 24.26 L 24.74 27.38 C25.68,29.10 27.35,32.08 28.47,34.00 L 30.50 37.50 L 30.83 34.00 C31.01,32.08 31.64,29.93 32.22,29.23 ZM 57.62 23.00 C66.99,23.00 67.00,23.00 67.00,20.46 C67.00,18.27 66.74,18.07 65.07,18.96 C62.01,20.60 54.77,20.17 52.21,18.20 C50.95,17.23 49.10,15.18 48.09,13.64 L 46.25 10.84 L 45.54 14.63 C45.15,16.72 44.15,19.75 43.31,21.36 L 41.80 24.29 L 45.02 23.65 C46.80,23.29 52.47,23.00 57.62,23.00 ZM 73.90 19.25 C73.81,15.90 73.71,15.77 73.00,18.00 C71.86,21.57 71.86,23.00 73.00,23.00 C73.55,23.00 73.96,21.31 73.90,19.25 ZM 364.00 121.07 C359.30,120.13 356.25,118.38 355.61,116.25 C355.11,114.57 352.63,80.49 351.63,61.37 L 351.15 52.24 L 355.11 50.45 C369.13,44.13 376.12,60.67 376.39,100.86 L 376.50 117.41 L 372.50 119.69 C370.30,120.94 368.27,121.92 368.00,121.87 C367.73,121.81 365.92,121.46 364.00,121.07 ZM 0.00 44.61 C0.00,43.05 6.79,39.62 11.75,38.67 C17.95,37.49 14.51,41.55 6.97,44.33 C1.45,46.36 0.00,46.42 0.00,44.61 ZM 6.25 34.83 C1.23,33.71 0.62,32.00 5.25,32.01 C9.53,32.01 16.00,33.84 16.00,35.05 C16.00,36.20 11.98,36.12 6.25,34.83 ZM 352.63 33.93 C350.37,32.15 350.00,31.10 350.00,26.48 C350.00,19.66 351.99,18.00 360.13,18.00 C365.26,18.00 366.08,18.31 368.41,21.08 C372.15,25.52 372.01,31.14 368.10,33.93 C364.11,36.77 356.25,36.77 352.63,33.93 ZM 94.75 22.26 C90.56,22.00 89.00,21.51 89.00,20.45 C89.00,18.85 92.73,18.62 99.42,19.81 C103.31,20.50 105.91,23.18 102.33,22.81 C101.32,22.71 97.91,22.46 94.75,22.26 ZM 90.00 14.53 C90.00,12.82 94.95,10.00 97.95,10.00 C101.11,10.00 100.37,12.76 97.01,13.50 C95.37,13.86 93.77,14.57 93.45,15.08 C92.54,16.55 90.00,16.14 90.00,14.53 ZM 601.45 98.91 C600.28,97.02 602.30,96.22 609.25,95.81 C615.74,95.42 616.00,95.49 616.00,97.70 C616.00,99.88 615.63,100.00 609.06,100.00 C605.14,100.00 601.83,99.53 601.45,98.91 ZM 600.00 82.17 C600.00,79.07 601.86,77.63 604.55,78.66 C605.54,79.04 606.00,80.22 605.80,81.88 C605.57,83.90 604.87,84.57 602.75,84.82 C600.30,85.10 600.00,84.81 600.00,82.17 ZM 611.67 82.33 C611.30,81.97 611.00,80.62 611.00,79.33 C611.00,77.51 611.55,77.00 613.50,77.00 C615.61,77.00 616.00,77.47 616.00,80.00 C616.00,82.24 615.54,83.00 614.17,83.00 C613.16,83.00 612.03,82.70 611.67,82.33 Z" fill="rgba(252,254,252,1)"/>
</g>
</svg>