<svg version="1.1" xmlns="http://www.w3.org/2000/svg" style="display: block;" viewBox="0 0 2048 2048" width="1000" height="1000" preserveAspectRatio="none">
<defs>
	<linearGradient id="Gradient1" gradientUnits="userSpaceOnUse" x1="1174.29" y1="1817.93" x2="1170.53" y2="1800.18">
		<stop class="stop0" offset="0" stop-opacity="1" stop-color="rgb(246,241,244)"/>
		<stop class="stop1" offset="1" stop-opacity="1" stop-color="rgb(180,192,223)"/>
	</linearGradient>
	<linearGradient id="Gradient2" gradientUnits="userSpaceOnUse" x1="532.302" y1="1798.97" x2="536.599" y2="1814.67">
		<stop class="stop0" offset="0" stop-opacity="1" stop-color="rgb(199,207,228)"/>
		<stop class="stop1" offset="1" stop-opacity="1" stop-color="rgb(242,237,243)"/>
	</linearGradient>
	<linearGradient id="Gradient3" gradientUnits="userSpaceOnUse" x1="421.044" y1="654.049" x2="417.822" y2="641.904">
		<stop class="stop0" offset="0" stop-opacity="1" stop-color="rgb(185,184,195)"/>
		<stop class="stop1" offset="1" stop-opacity="1" stop-color="rgb(225,222,229)"/>
	</linearGradient>
	<linearGradient id="Gradient4" gradientUnits="userSpaceOnUse" x1="764.725" y1="307.501" x2="748.891" y2="303.683">
		<stop class="stop0" offset="0" stop-opacity="1" stop-color="rgb(231,224,239)"/>
		<stop class="stop1" offset="1" stop-opacity="1" stop-color="rgb(245,246,247)"/>
	</linearGradient>
</defs>
<path transform="translate(0,0)" fill="rgb(44,82,159)" d="M 793.207 229.456 C 797.568 229.289 801.797 228.803 805.982 229.835 C 813.647 229.752 817.858 229.709 823.37 235.97 C 839.932 254.783 852.044 277.714 865.236 298.914 C 869.49 305.751 872.332 313.567 876.604 320.419 C 892.986 344.772 911.733 364.874 941.133 372.163 C 947.728 373.798 955.168 373.143 962.037 372.958 C 976.109 362.18 977.191 366.944 990.07 360.727 C 999.059 357.375 1003.28 359.988 1013.57 351.878 C 1021.07 345.962 1025.39 344.775 1031.9 336.383 C 1032.41 333.286 1032.72 332.221 1034.03 329.373 C 1049.95 319.31 1056.21 306.752 1072.94 298.272 C 1077.62 294.415 1088.51 291.71 1092.01 284.667 C 1093.86 280.943 1095.99 277.382 1099.34 274.865 C 1110.3 273.492 1117.8 263.492 1132.28 268.949 C 1145.2 273.815 1142.89 282.764 1150.99 291.291 C 1155.06 295.834 1156.55 296.874 1161.35 300.418 C 1161.34 307.52 1161.09 316.326 1161.67 323.243 C 1164.31 330.011 1166.07 333.726 1166.85 340.995 L 1167.07 342.998 C 1167.73 349.223 1167.68 356.15 1167.56 362.426 C 1166.82 400.208 1168.35 438.642 1166.97 476.356 C 1167.05 480.379 1166.65 484.143 1168.68 487.518 C 1174.36 491.344 1186.09 494.712 1193.01 497.518 C 1261.27 525.182 1329.1 561.631 1378.94 617.716 C 1380.08 619.989 1379.85 619.624 1380.21 621.967 C 1382.88 623.602 1382.74 623.527 1385.8 624.196 L 1388.19 627.09 C 1398.99 636.026 1413.46 648.608 1418.06 662.557 C 1418.29 663.262 1418.08 666.435 1418.35 667.903 C 1420.54 667.544 1422.23 667.135 1424.44 667.164 C 1443.4 689.177 1453.5 707.4 1464.71 733.425 C 1466.2 740.581 1467.86 740.062 1471.81 745.71 C 1475.11 750.431 1476.32 755.256 1480.07 759.899 C 1480.35 764.136 1480.55 769.082 1481.07 773.238 C 1483.65 775.808 1486.52 778.494 1488.72 781.351 C 1490.11 814.337 1492.64 842.009 1489.25 875.286 C 1487.03 897.027 1492.84 910.831 1482.82 933.251 C 1480.77 939.215 1481.89 963.041 1478.24 964.062 C 1477.66 964.223 1477.04 964.147 1476.44 964.19 C 1474.5 970.301 1474.58 976.794 1474.28 983.236 C 1469.94 989.157 1466.83 993.004 1464.44 1000.09 C 1456.33 1008.76 1457.47 1016.81 1451.63 1027.98 C 1446.49 1040.41 1411.63 1094.72 1400.98 1100.97 C 1391.62 1102.9 1383.54 1116.35 1376.74 1122.92 C 1376.31 1123.34 1375.69 1124.57 1375.36 1125.21 C 1372.36 1135.99 1354.97 1153.06 1345.06 1157.66 C 1338.71 1159.63 1300.61 1197.46 1298.63 1202.28 L 1291.86 1212.53 C 1307.5 1225.07 1310.13 1233.18 1321.87 1247.4 C 1332.64 1260.45 1341.98 1271.26 1352.07 1285.35 C 1357.75 1293.28 1362.9 1297.59 1368.82 1307.08 L 1369.89 1308.78 C 1370.1 1309.13 1370.31 1309.47 1370.52 1309.82 C 1388.6 1329.96 1420.6 1371.21 1425.01 1397.82 C 1427.92 1415.45 1423.43 1451.08 1425.41 1470.7 C 1426.06 1477.09 1419.23 1493.01 1417.96 1502.27 C 1413.45 1508.05 1411.85 1510.01 1405.26 1513.77 L 1393.02 1524.32 C 1388.52 1528.84 1383.98 1533.75 1378.84 1537.48 C 1365.48 1538.44 1360.56 1537.87 1347.31 1535.48 C 1344.22 1531.67 1342.72 1528.8 1337.51 1528.35 C 1320.28 1524.36 1280.94 1497.37 1263.18 1487.86 C 1254.17 1483.03 1233.13 1453.28 1220.88 1451.56 C 1212.12 1448.05 1167.54 1407.57 1163 1399.97 C 1159.9 1389.23 1144.64 1373.98 1135.8 1368.56 C 1135.33 1368.43 1134.85 1368.32 1134.39 1368.18 C 1122.94 1364.58 1075.58 1313.07 1069.57 1301.32 C 1068.85 1299.92 1067.64 1299.86 1066.22 1299.27 C 1057.18 1300.82 1035.04 1300.25 1024.91 1300.24 L 949.742 1300.13 C 943.585 1300.12 926.366 1298.97 922.406 1302.36 C 925.353 1313.44 923.73 1358.48 923.326 1372.31 C 923.191 1376.95 918.63 1393.28 918.003 1399.1 C 917.34 1405.26 917.504 1410.96 917.5 1417.14 C 915.034 1419.86 911.801 1423.22 909.676 1426.12 C 907.838 1451.18 891.99 1489.02 882.153 1513.07 C 880.499 1517.11 875.85 1521.97 872.601 1524.99 C 863.472 1529.72 863.46 1536.66 851.982 1541.48 C 839.69 1559.88 802.557 1555.55 784.16 1556.26 C 767.901 1556.89 726.358 1553.57 721.319 1534.34 C 721.323 1529.78 722.099 1528.64 718.706 1525.97 C 706.521 1517.83 694.365 1467.88 687.571 1452.92 C 686.675 1450.95 686.416 1437.01 685.805 1433.07 C 678.526 1425.23 680.194 1419.52 680.103 1409.24 C 679.999 1397.68 679.827 1400.21 675.323 1390.93 C 671.102 1378.27 672.652 1365.84 671.687 1352.85 C 670.805 1345.67 666.407 1341.09 665.927 1333.56 C 664.815 1316.1 666.736 1298.4 665.702 1280.96 C 664.857 1271.46 659.721 1261.65 659.557 1252.12 C 658.79 1207.62 661.69 1162.99 658.231 1118.56 C 657.341 1110.56 658.562 1099.91 657.221 1092.18 C 654.262 1075.15 652.833 1059.82 652.992 1042.51 C 653.075 1033.45 651.136 1023.35 651.221 1014.11 C 651.29 1006.5 650.955 998.709 651.119 991.081 C 651.173 951.972 651.475 912.863 651.507 873.755 C 651.516 862.585 646.877 852.054 645.592 841.054 C 644.257 826.307 645.066 810.178 645.291 795.269 C 645.954 780.788 643.379 773.51 640.315 759.543 C 638.846 752.848 639.144 744.9 637.61 737.687 C 635.551 728.007 629.497 718.508 631.639 708.757 C 625.41 702.617 626.157 701.569 625.908 692.59 C 617.801 683.841 612.51 679.228 610.334 667.273 C 610.387 663.886 603.981 653.455 601.616 650.826 L 600.464 652.781 L 599.241 652.886 C 598.821 651.285 598.116 645.592 597.71 644.908 C 589.177 630.549 581.275 615.722 572.825 601.374 C 571.7 599.463 569.296 596.24 567.616 595.085 C 559.209 589.68 556.6 584.706 555.436 574.971 C 555.618 572.76 555.681 573.633 554.771 571.462 C 552.028 571.482 551.968 571.749 549.755 570.264 C 545.918 564.302 549.592 551.275 535.665 544.691 C 534.246 542.425 533.762 541.671 532.038 539.648 C 520.757 528.15 517.099 519.924 508.682 506.882 C 507.591 505.191 505.619 503.337 504.134 500.9 C 502.823 492.331 499.435 484.212 494.267 477.252 C 491.996 474.129 492.243 473.983 489.436 473.58 C 485.991 472.425 480.851 469.632 479.123 466.243 C 478.349 448.464 474.444 457.319 468.914 444.089 C 462.266 432.224 468.483 431.824 457.89 419.84 C 455.804 417.129 451.81 413.727 450.725 410.568 C 447.857 402.217 446.183 393.558 449.798 385.166 C 452.833 378.119 457.791 376.997 464.46 374.48 C 466.815 371.092 466.905 370.604 470.482 368.906 C 490.407 367.944 526.562 389.235 543.119 399.899 C 573.079 419.197 606.14 433.743 639.439 446.249 C 650.354 450.288 662.478 445.793 671.918 453.901 C 673.944 455.53 685.758 454.743 689.188 454.57 C 695.055 451.041 712.659 438.559 715.756 433.211 C 714.222 421.278 721.529 416.599 721.051 401.289 C 730.629 388.719 726.93 378.568 731.48 373.284 L 734.425 374.081 C 735.941 371.707 735.379 366.763 735.399 363.396 C 735.219 358.345 734.355 353.382 737.752 350.353 C 742.498 346.121 741.649 334.85 741.927 327.697 C 744.259 325.172 747.37 322.332 749.888 319.899 C 749.68 312.375 747.547 301.43 755.095 297.697 C 756.902 291.339 754.451 286.644 756.514 279.244 C 760.559 276.076 769.975 250.084 770.44 245.085 C 778.819 236.66 781.68 231.748 793.207 229.456 z M 861.804 659.575 C 861.995 668.106 862.006 676.76 863.208 685.21 C 864.182 692.058 868.007 703.854 868.342 710.185 C 869.132 725.092 867.806 740.988 868.429 756.014 C 868.792 764.76 874.03 774.803 874.59 783.037 C 875.327 793.88 873.675 805.999 875.195 816.889 C 876.207 824.134 881.608 831.341 882.639 838.462 C 885.611 858.999 877.017 871.075 888.967 889.396 C 888.932 912.598 886.313 931.218 894.664 953.403 C 896.612 958.579 893.76 985.916 895.205 993.954 C 900.22 1021.85 909.672 1054.87 899.78 1083 C 920.966 1084.14 938.316 1076.86 959.53 1077.06 C 968.246 1077.14 977.532 1077.91 982.598 1070.4 C 993.649 1066.37 1000.48 1072.9 1014.64 1065.11 C 1028.53 1059.79 1032.73 1067.59 1048.53 1055.12 C 1063.7 1055.04 1075.88 1052.25 1089.36 1045.27 C 1100.31 1039.59 1103.77 1041.91 1113.13 1038.91 C 1116.79 1036.88 1121.53 1036.05 1125.26 1034.41 C 1132.87 1031.07 1141.06 1027.59 1148.43 1023.81 C 1160.04 1017.86 1170.32 1009.28 1182.02 1003.4 C 1183.93 1002.03 1192.63 1000.61 1195.16 999.055 C 1204.19 993.505 1234.37 969.695 1235.61 959.647 L 1237 960.413 C 1242.21 957.641 1251.37 941.435 1254.13 935.828 L 1252.75 928.753 C 1253.17 925.948 1254.73 922.729 1255.76 919.91 C 1258.03 913.668 1257.65 908.147 1257.47 901.593 C 1261.48 895.536 1263.59 892.223 1266.21 885.193 C 1265.67 876.073 1265.99 862.476 1265.91 853.109 C 1263.6 850.106 1260.76 846.819 1258.33 843.854 C 1257.73 837.784 1257.94 829.715 1257.94 823.461 C 1259.07 816.349 1256.68 799.863 1248.93 798.141 L 1246.99 798.206 C 1243.23 794.397 1238.68 784.072 1235.35 778.938 C 1230.51 771.486 1223.18 763.594 1221.06 755.117 C 1221.26 742.571 1184.56 722.246 1173.85 717.812 C 1165.39 714.306 1162.68 708.072 1152.45 706.063 C 1144.34 704.024 1134.24 695.587 1125.77 692.615 C 1107.41 686.178 1090.05 677.779 1070.98 673.85 C 1066.51 672.047 1056.33 673.883 1052.52 672.411 C 1035.98 666.016 1027.56 664.873 1009.86 664.698 C 1003.71 657.872 1001.35 658.507 992.704 658.47 C 986.767 659.51 959.679 659.602 953.679 658.679 C 953.749 654.571 954.189 656.589 951.413 652.673 C 928.527 653.616 902.844 653.04 879.781 652.761 C 872.627 656.869 870.137 658.722 861.804 659.575 z M 852.455 407.825 C 846.316 396.846 842.397 398.911 834.467 388.619 C 825.802 377.374 819.89 363.407 812.818 352.268 C 814.429 383.08 808.396 399.987 797.146 428.512 C 794.499 435.224 793.107 443.732 789.944 450.401 C 785.593 458.991 779.915 468.318 775.166 476.907 C 786.838 477.028 803.347 478.516 812.385 470.915 C 872.472 471.222 933.487 473.022 993.454 469.243 C 999.577 468.858 1004.34 469.26 1010.58 467.95 C 1015.63 461.006 1021.33 462.74 1029.35 462.852 C 1027.97 450.935 1027.92 438.31 1027.92 426.299 C 1018.47 434.298 1002.34 436.763 990.941 442.333 C 987.045 444.237 982.901 447.364 979.367 449.938 C 955.344 450.786 937.596 454.191 917.935 440.536 C 901.872 441.477 886.007 436.603 873.243 426.804 C 872.652 426.358 872.06 425.911 871.469 425.464 C 865.612 420.77 867.643 417.749 861.367 411.668 C 856.63 412.103 855.498 411.846 852.455 407.825 z M 639.469 580.198 L 645.556 573.342 C 646.255 554.371 648.938 559.389 652.57 543.317 C 656.164 540.042 662.555 535.101 663.102 530.47 C 663.37 528.205 662.835 528.671 660.857 526.11 C 651.986 525.744 632.791 519.249 625.271 514.436 C 617.681 509.937 595.013 504.441 585.985 504.308 C 581.356 498.547 581.593 497.884 574.687 497.067 C 573.668 496.952 572.648 496.849 571.627 496.759 L 570.972 497.747 C 582.515 511.305 585.464 520.707 593.151 536.427 C 597.404 545.126 603.977 551.772 609.085 559.886 C 615.237 573.095 629.997 603.866 638.2 614.394 C 639.212 612.653 639.06 613.145 639.603 611.226 C 638.22 603.422 639.092 588.585 639.469 580.198 z M 1104.85 415.525 C 1103.26 422.608 1100.41 430.997 1099.06 437.709 C 1098.11 442.44 1095.63 466.851 1097.28 469.919 C 1100.42 463.576 1103.67 454.367 1103.75 447.363 C 1103.83 439.776 1107.67 421.99 1104.85 415.525 z"/>
<path transform="translate(0,0)" fill="rgb(227,227,233)" d="M 649.145 780.958 C 654.59 825.339 654.689 863.841 657.316 907.837 C 664.066 1020.9 660.035 1133.55 668.113 1246.5 C 670.78 1283.8 672.29 1320.31 678.057 1357.49 C 679.291 1365.45 681.88 1378.93 682.002 1386.56 C 680.967 1390.55 680.845 1391.17 681.279 1395.24 C 679.144 1393.31 678.022 1392 675.323 1390.93 C 671.102 1378.27 672.652 1365.84 671.687 1352.85 C 670.805 1345.67 666.407 1341.09 665.927 1333.56 C 664.815 1316.1 666.736 1298.4 665.702 1280.96 C 664.857 1271.46 659.721 1261.65 659.557 1252.12 C 658.79 1207.62 661.69 1162.99 658.231 1118.56 C 657.341 1110.56 658.562 1099.91 657.221 1092.18 C 654.262 1075.15 652.833 1059.82 652.992 1042.51 C 653.075 1033.45 651.136 1023.35 651.221 1014.11 C 651.29 1006.5 650.955 998.709 651.119 991.081 C 651.173 951.972 651.475 912.863 651.507 873.755 C 651.516 862.585 646.877 852.054 645.592 841.054 C 644.257 826.307 645.066 810.178 645.291 795.269 C 647.155 791.789 648.272 785.074 649.145 780.958 z"/>
<path transform="translate(0,0)" fill="rgb(227,227,233)" d="M 464.46 374.48 C 466.815 371.092 466.905 370.604 470.482 368.906 C 490.407 367.944 526.562 389.235 543.119 399.899 C 573.079 419.197 606.14 433.743 639.439 446.249 C 650.354 450.288 662.478 445.793 671.918 453.901 C 673.944 455.53 685.758 454.743 689.188 454.57 C 695.055 451.041 712.659 438.559 715.756 433.211 L 716.976 435.376 C 704.69 456.411 693.044 463.481 668.279 459.496 C 629.107 453.194 593.192 435.236 558.455 416.9 C 528.575 401.127 501.54 374.722 465.856 375.971 L 464.46 374.48 z"/>
<path transform="translate(0,0)" fill="rgb(227,227,233)" d="M 805.982 229.835 C 813.647 229.752 817.858 229.709 823.37 235.97 C 839.932 254.783 852.044 277.714 865.236 298.914 C 869.49 305.751 872.332 313.567 876.604 320.419 C 892.986 344.772 911.733 364.874 941.133 372.163 C 947.728 373.798 955.168 373.143 962.037 372.958 C 976.109 362.18 977.191 366.944 990.07 360.727 C 993.034 360.815 994.47 361.007 997.352 361.405 L 997.214 362.415 C 907.472 417.497 870.637 319.01 833.705 258.086 C 829.288 250.8 807.084 233.41 805.982 229.835 z"/>
<path transform="translate(0,0)" fill="rgb(227,227,233)" d="M 1163.49 488.083 C 1168.07 481.911 1163.16 480.917 1166.97 476.356 C 1167.05 480.379 1166.65 484.143 1168.68 487.518 C 1174.36 491.344 1186.09 494.712 1193.01 497.518 C 1261.27 525.182 1329.1 561.631 1378.94 617.716 L 1377 620.336 C 1374.87 620.516 1368.6 614.11 1366.58 612.201 C 1316.52 564.822 1259.46 529.978 1195.11 505.573 C 1188.04 502.889 1170.64 496.187 1164.41 492.329 L 1163.49 488.083 z"/>
<path transform="translate(0,0)" fill="rgb(227,227,233)" d="M 919.458 1296.11 L 920.604 1301.31 L 922.406 1302.36 C 925.353 1313.44 923.73 1358.48 923.326 1372.31 C 923.191 1376.95 918.63 1393.28 918.003 1399.1 C 917.34 1405.26 917.504 1410.96 917.5 1417.14 C 915.034 1419.86 911.801 1423.22 909.676 1426.12 C 907.838 1451.18 891.99 1489.02 882.153 1513.07 C 880.499 1517.11 875.85 1521.97 872.601 1524.99 L 870.717 1524.8 C 868.507 1522.2 871.309 1519.21 872.776 1516.39 C 899.274 1465.32 912.452 1405.64 918.027 1348.65 C 919.638 1332.18 918.861 1313 919.458 1296.11 z"/>
<path transform="translate(0,0)" fill="rgb(227,227,233)" d="M 919.458 1296.11 C 920.139 1292.36 919.454 1292.17 921.712 1290.59 C 968.492 1289.72 1016.13 1291.18 1063.33 1290.23 C 1065.81 1292.84 1068.28 1295.64 1070.99 1297.98 C 1069.66 1298.27 1067.27 1298.64 1066.22 1299.27 C 1057.18 1300.82 1035.04 1300.25 1024.91 1300.24 L 949.742 1300.13 C 943.585 1300.12 926.366 1298.97 922.406 1302.36 L 920.604 1301.31 L 919.458 1296.11 z"/>
<path transform="translate(0,0)" fill="rgb(227,227,233)" d="M 1464.71 733.425 C 1466.2 740.581 1467.86 740.062 1471.81 745.71 C 1475.11 750.431 1476.32 755.256 1480.07 759.899 C 1480.35 764.136 1480.55 769.082 1481.07 773.238 C 1483.65 775.808 1486.52 778.494 1488.72 781.351 C 1490.11 814.337 1492.64 842.009 1489.25 875.286 C 1487.03 897.027 1492.84 910.831 1482.82 933.251 C 1478.66 929.784 1479.2 927.76 1478.86 922.593 C 1483.41 849.946 1496.43 807.333 1462.09 737.965 L 1464.71 733.425 z"/>
<path transform="translate(0,0)" fill="rgb(227,227,233)" d="M 1370.52 1309.82 C 1388.6 1329.96 1420.6 1371.21 1425.01 1397.82 C 1427.92 1415.45 1423.43 1451.08 1425.41 1470.7 C 1426.06 1477.09 1419.23 1493.01 1417.96 1502.27 C 1413.45 1508.05 1411.85 1510.01 1405.26 1513.77 C 1405.05 1513.13 1404.85 1512.49 1404.64 1511.85 C 1410.23 1501.81 1416.74 1487.01 1418.37 1475.72 C 1420.8 1459.78 1421.72 1443.64 1421.11 1427.53 C 1419.61 1374.59 1397.73 1354.41 1366.48 1312.91 C 1368.02 1310.77 1368.09 1310.97 1370.52 1309.82 z"/>
<path transform="translate(0,0)" fill="url(#Gradient4)" d="M 770.44 245.085 C 778.819 236.66 781.68 231.748 793.207 229.456 C 792.824 234.269 793.232 233.487 789.415 236.421 C 775.888 246.818 773.032 258.996 767.589 274.16 C 755.541 307.727 748.878 344.631 737.71 378.263 C 735.801 374.965 736.956 369.369 735.399 363.396 C 735.219 358.345 734.355 353.382 737.752 350.353 C 742.498 346.121 741.649 334.85 741.927 327.697 C 744.259 325.172 747.37 322.332 749.888 319.899 C 749.68 312.375 747.547 301.43 755.095 297.697 C 756.902 291.339 754.451 286.644 756.514 279.244 C 760.559 276.076 769.975 250.084 770.44 245.085 z"/>
<path transform="translate(0,0)" fill="rgb(214,215,230)" d="M 1156.85 323.634 C 1158.12 325.065 1158.96 326.506 1160 328.102 C 1160.41 326.288 1160.87 324.923 1161.67 323.243 C 1164.31 330.011 1166.07 333.726 1166.85 340.995 L 1167.07 342.998 C 1167.73 349.223 1167.68 356.15 1167.56 362.426 C 1166.82 400.208 1168.35 438.642 1166.97 476.356 C 1163.16 480.917 1168.07 481.911 1163.49 488.083 C 1161.75 470.78 1162.23 436.708 1162 418.616 C 1161.86 386.889 1160.14 355.19 1156.85 323.634 z"/>
<path transform="translate(0,0)" fill="rgb(227,227,233)" d="M 721.319 1534.34 L 722.335 1529.65 C 726.148 1529.64 729.501 1537.03 732.885 1539.62 C 742.679 1547.14 755.982 1547.89 767.871 1548.15 C 792.865 1547.42 829.567 1551.37 851.982 1541.48 C 839.69 1559.88 802.557 1555.55 784.16 1556.26 C 767.901 1556.89 726.358 1553.57 721.319 1534.34 z"/>
<path transform="translate(0,0)" fill="rgb(227,227,233)" d="M 1366.48 1312.91 C 1340.24 1281.35 1316.05 1247.93 1289.69 1216.42 C 1288.57 1215.08 1288.15 1213.17 1287.85 1211.5 C 1289.19 1205.69 1291.29 1205.43 1296.87 1201.86 L 1298.63 1202.28 L 1291.86 1212.53 C 1307.5 1225.07 1310.13 1233.18 1321.87 1247.4 C 1332.64 1260.45 1341.98 1271.26 1352.07 1285.35 C 1357.75 1293.28 1362.9 1297.59 1368.82 1307.08 L 1369.89 1308.78 C 1370.1 1309.13 1370.31 1309.47 1370.52 1309.82 C 1368.09 1310.97 1368.02 1310.77 1366.48 1312.91 z"/>
<path transform="translate(0,0)" fill="rgb(214,215,230)" d="M 682.002 1386.56 C 688.509 1423.23 694.46 1456.94 706.843 1492.51 C 710.063 1501.75 715.918 1513.61 719.507 1523.03 C 719.534 1523.11 718.901 1525.54 718.706 1525.97 C 706.521 1517.83 694.365 1467.88 687.571 1452.92 C 686.675 1450.95 686.416 1437.01 685.805 1433.07 C 678.526 1425.23 680.194 1419.52 680.103 1409.24 C 679.999 1397.68 679.827 1400.21 675.323 1390.93 C 678.022 1392 679.144 1393.31 681.279 1395.24 C 680.845 1391.17 680.967 1390.55 682.002 1386.56 z"/>
<path transform="translate(0,0)" fill="rgb(214,215,230)" d="M 1066.22 1299.27 C 1067.27 1298.64 1069.66 1298.27 1070.99 1297.98 C 1079.15 1306.02 1134.29 1361.36 1136.11 1367.9 L 1135.8 1368.56 C 1135.33 1368.43 1134.85 1368.32 1134.39 1368.18 C 1122.94 1364.58 1075.58 1313.07 1069.57 1301.32 C 1068.85 1299.92 1067.64 1299.86 1066.22 1299.27 z"/>
<path transform="translate(0,0)" fill="rgb(214,215,230)" d="M 633.861 703.163 C 642.24 725.353 648.444 757.113 649.145 780.958 C 648.272 785.074 647.155 791.789 645.291 795.269 C 645.954 780.788 643.379 773.51 640.315 759.543 C 638.846 752.848 639.144 744.9 637.61 737.687 C 635.551 728.007 629.497 718.508 631.639 708.757 C 632.131 706.42 632.034 706.23 631.83 703.861 L 633.861 703.163 z"/>
<path transform="translate(0,0)" fill="rgb(227,227,233)" d="M 1424.44 667.164 C 1443.4 689.177 1453.5 707.4 1464.71 733.425 L 1462.09 737.965 C 1449.95 713.767 1435.38 693.888 1420.69 671.617 C 1422.08 670.23 1423.26 668.737 1424.44 667.164 z"/>
<path transform="translate(0,0)" fill="rgb(214,215,230)" d="M 1476.99 936.651 C 1476.95 933.464 1478.32 926.058 1478.86 922.593 C 1479.2 927.76 1478.66 929.784 1482.82 933.251 C 1480.77 939.215 1481.89 963.041 1478.24 964.062 C 1477.66 964.223 1477.04 964.147 1476.44 964.19 C 1474.5 970.301 1474.58 976.794 1474.28 983.236 C 1469.94 989.157 1466.83 993.004 1464.44 1000.09 C 1463.06 1000.66 1461.94 1001.07 1460.53 1001.55 C 1461.15 996.286 1466.05 980.995 1467.7 975.056 C 1471.17 962.347 1474.27 949.54 1476.99 936.651 z"/>
<path transform="translate(0,0)" fill="rgb(227,227,233)" d="M 1476.99 936.651 C 1476.95 933.464 1478.32 926.058 1478.86 922.593 C 1479.2 927.76 1478.66 929.784 1482.82 933.251 C 1480.77 939.215 1481.89 963.041 1478.24 964.062 C 1477.66 964.223 1477.04 964.147 1476.44 964.19 C 1471.61 958.839 1478.52 949.065 1476.99 936.651 z"/>
<path transform="translate(0,0)" fill="rgb(191,189,197)" d="M 1400.98 1100.97 C 1400.61 1100.45 1400.24 1099.93 1399.87 1099.41 C 1398.27 1097.35 1405.49 1088.81 1407.4 1086.44 C 1418.67 1072.55 1429.27 1058.17 1438.76 1042.96 C 1443.59 1035.22 1446.2 1028.16 1451.65 1020.34 C 1452.05 1022.72 1451.74 1025.5 1451.63 1027.98 C 1446.49 1040.41 1411.63 1094.72 1400.98 1100.97 z"/>
<path transform="translate(0,0)" fill="rgb(227,227,233)" d="M 735.399 363.396 C 736.956 369.369 735.801 374.965 737.71 378.263 C 732.372 398.02 725.926 416.953 716.976 435.376 L 715.756 433.211 C 714.222 421.278 721.529 416.599 721.051 401.289 C 730.629 388.719 726.93 378.568 731.48 373.284 L 734.425 374.081 C 735.941 371.707 735.379 366.763 735.399 363.396 z"/>
<path transform="translate(0,0)" fill="rgb(227,227,233)" d="M 1337.51 1528.35 C 1335.15 1526.55 1333.03 1524.97 1330.59 1523.28 C 1336.54 1523.62 1346.71 1526.58 1352.89 1528.13 C 1368.45 1532.05 1378.88 1526.36 1393.02 1524.32 C 1388.52 1528.84 1383.98 1533.75 1378.84 1537.48 C 1365.48 1538.44 1360.56 1537.87 1347.31 1535.48 C 1344.22 1531.67 1342.72 1528.8 1337.51 1528.35 z"/>
<path transform="translate(0,0)" fill="rgb(227,227,233)" d="M 1163 1399.97 L 1164.27 1396.73 C 1165.89 1397.02 1167.09 1396.9 1168.04 1398.39 C 1174.65 1408.83 1220.73 1443.71 1220.88 1451.56 C 1212.12 1448.05 1167.54 1407.57 1163 1399.97 z"/>
<path transform="translate(0,0)" fill="rgb(227,227,233)" d="M 1418.35 667.903 C 1416.35 667.462 1389.3 634.947 1386.09 630.771 L 1388.19 627.09 C 1398.99 636.026 1413.46 648.608 1418.06 662.557 C 1418.29 663.262 1418.08 666.435 1418.35 667.903 z"/>
<path transform="translate(0,0)" fill="rgb(214,215,230)" d="M 457.89 419.84 C 455.804 417.129 451.81 413.727 450.725 410.568 C 447.857 402.217 446.183 393.558 449.798 385.166 C 452.833 378.119 457.791 376.997 464.46 374.48 L 465.856 375.971 C 443.365 388.292 461.657 414.143 459.724 419.996 L 457.89 419.84 z"/>
<path transform="translate(0,0)" fill="rgb(191,189,197)" d="M 1072.94 298.272 L 1075.21 299.392 C 1071.43 305.285 1042.98 329.556 1036.67 334.229 L 1034.03 329.373 C 1049.95 319.31 1056.21 306.752 1072.94 298.272 z"/>
<path transform="translate(0,0)" fill="rgb(227,227,233)" d="M 610.334 667.273 L 612.473 666.687 C 619.11 672.742 631.338 694.999 633.861 703.163 L 631.83 703.861 C 632.034 706.23 632.131 706.42 631.639 708.757 C 625.41 702.617 626.157 701.569 625.908 692.59 C 617.801 683.841 612.51 679.228 610.334 667.273 z"/>
<path transform="translate(0,0)" fill="rgb(227,227,233)" d="M 1156.85 323.634 C 1155.35 320.26 1150.85 297.123 1149.61 291.941 L 1150.99 291.291 C 1155.06 295.834 1156.55 296.874 1161.35 300.418 C 1161.34 307.52 1161.09 316.326 1161.67 323.243 C 1160.87 324.923 1160.41 326.288 1160 328.102 C 1158.96 326.506 1158.12 325.065 1156.85 323.634 z"/>
<path transform="translate(0,0)" fill="rgb(227,227,233)" d="M 504.134 500.9 L 506.107 498.961 C 511.512 499.962 530.497 531.745 533.288 537.501 C 532.888 539.35 533.377 538.682 532.038 539.648 C 520.757 528.15 517.099 519.924 508.682 506.882 C 507.591 505.191 505.619 503.337 504.134 500.9 z"/>
<path transform="translate(0,0)" fill="rgb(227,227,233)" d="M 1345.06 1157.66 L 1344.51 1155.83 C 1347.95 1148.95 1367.7 1130.85 1373.93 1124.83 L 1375.36 1125.21 C 1372.36 1135.99 1354.97 1153.06 1345.06 1157.66 z"/>
<path transform="translate(0,0)" fill="rgb(227,227,233)" d="M 468.914 444.089 L 469.767 438.708 L 470.599 438.406 C 474.905 444.372 490.249 467.222 489.436 473.58 C 485.991 472.425 480.851 469.632 479.123 466.243 C 478.349 448.464 474.444 457.319 468.914 444.089 z"/>
<path transform="translate(0,0)" fill="rgb(191,189,197)" d="M 555.436 574.971 L 557.437 574.686 C 560.925 578.69 570.283 589.668 567.616 595.085 C 559.209 589.68 556.6 584.706 555.436 574.971 z"/>
<path transform="translate(0,0)" fill="rgb(227,227,233)" d="M 1037.18 1066.66 C 1034.35 1067.51 1031.5 1068.31 1028.64 1069.05 C 1011.85 1073.39 903.512 1094.39 894.218 1088.88 C 893.008 1082.93 893.835 1061.82 893.875 1054 C 893.899 1039.34 893.253 1024.7 891.939 1010.1 C 884.029 926.544 873.799 845.068 864.041 761.761 C 860.391 730.608 856.615 694.165 856.467 662.705 C 856.451 659.241 857.165 656.161 860.091 654.118 C 875.154 643.601 938.392 646.206 955.075 648.951 L 946.99 649.497 L 954.216 651.043 L 954.745 652.012 L 951.413 652.673 C 928.527 653.616 902.844 653.04 879.781 652.761 C 872.627 656.869 870.137 658.722 861.804 659.575 C 861.995 668.106 862.006 676.76 863.208 685.21 C 864.182 692.058 868.007 703.854 868.342 710.185 C 869.132 725.092 867.806 740.988 868.429 756.014 C 868.792 764.76 874.03 774.803 874.59 783.037 C 875.327 793.88 873.675 805.999 875.195 816.889 C 876.207 824.134 881.608 831.341 882.639 838.462 C 885.611 858.999 877.017 871.075 888.967 889.396 C 888.932 912.598 886.313 931.218 894.664 953.403 C 896.612 958.579 893.76 985.916 895.205 993.954 C 900.22 1021.85 909.672 1054.87 899.78 1083 C 920.966 1084.14 938.316 1076.86 959.53 1077.06 C 968.246 1077.14 977.532 1077.91 982.598 1070.4 C 993.649 1066.37 1000.48 1072.9 1014.64 1065.11 C 1022.84 1064.84 1029.58 1063.83 1037.18 1066.66 z"/>
<path transform="translate(0,0)" fill="rgb(227,227,233)" d="M 809.758 344.955 C 820.45 352.208 824.29 363.492 831.623 373.913 C 838.857 384.193 846.996 394.011 853.993 404.342 L 852.455 407.825 C 846.316 396.846 842.397 398.911 834.467 388.619 C 825.802 377.374 819.89 363.407 812.818 352.268 C 814.429 383.08 808.396 399.987 797.146 428.512 C 794.499 435.224 793.107 443.732 789.944 450.401 C 785.593 458.991 779.915 468.318 775.166 476.907 C 786.838 477.028 803.347 478.516 812.385 470.915 C 872.472 471.222 933.487 473.022 993.454 469.243 C 999.577 468.858 1004.34 469.26 1010.58 467.95 C 1015.63 461.006 1021.33 462.74 1029.35 462.852 C 1027.97 450.935 1027.92 438.31 1027.92 426.299 C 1018.47 434.298 1002.34 436.763 990.941 442.333 C 987.045 444.237 982.901 447.364 979.367 449.938 C 955.344 450.786 937.596 454.191 917.935 440.536 C 901.872 441.477 886.007 436.603 873.243 426.804 C 872.652 426.358 872.06 425.911 871.469 425.464 C 871.297 422.084 869.798 421.962 870.423 419.302 C 877.616 424.264 882.989 428.414 891.897 431.626 C 922.509 442.666 964.82 442.479 996.756 437.694 C 1004.42 436.546 1022.4 423.485 1031.2 426.225 C 1033.57 428.577 1034.25 432.473 1034.62 435.732 C 1036.83 455.381 1037.62 472.259 1012.13 473.308 C 941.7 476.205 871.256 472.091 801.014 481.395 C 788.573 483.043 776.759 487.587 763.941 488.501 C 765.995 481.929 767.682 477.356 771.341 471.4 C 795.437 432.183 802.861 389.494 809.758 344.955 z"/>
<path transform="translate(0,0)" fill="rgb(227,227,233)" d="M 643.131 626.38 L 636.645 624.625 C 632.379 617.057 629.511 608.787 625.128 601.041 L 582.914 527.01 C 576.925 516.476 565.061 497.962 561.872 487.242 C 573.346 489.338 593.782 498.957 606.008 502.848 C 609.952 504.104 619.368 507.07 622.681 508.412 L 621.551 509.53 C 622.794 511.089 624.248 512.761 625.271 514.436 C 617.681 509.937 595.013 504.441 585.985 504.308 C 581.356 498.547 581.593 497.884 574.687 497.067 C 573.668 496.952 572.648 496.849 571.627 496.759 L 570.972 497.747 C 582.515 511.305 585.464 520.707 593.151 536.427 C 597.404 545.126 603.977 551.772 609.085 559.886 C 615.237 573.095 629.997 603.866 638.2 614.394 C 639.212 612.653 639.06 613.145 639.603 611.226 C 642.445 618.486 635.73 621.159 643.131 626.38 z"/>
<path transform="translate(0,0)" fill="rgb(227,227,233)" d="M 1105.59 405.463 L 1107.79 406.663 C 1111.59 417.632 1110.75 462.847 1101.96 472.916 C 1100 475.155 1097.09 474.673 1094.51 474.65 C 1089.31 469.704 1088.21 464.382 1089.38 457.444 C 1091.92 442.408 1095.46 416.855 1105.59 405.463 z M 1097.28 469.919 C 1100.42 463.576 1103.67 454.367 1103.75 447.363 C 1103.83 439.776 1107.67 421.99 1104.85 415.525 C 1103.26 422.608 1100.41 430.997 1099.06 437.709 C 1098.11 442.44 1095.63 466.851 1097.28 469.919 z"/>
<path transform="translate(0,0)" fill="rgb(0,0,0)" fill-opacity="0.0156863" d="M 1104.85 415.525 C 1107.67 421.99 1103.83 439.776 1103.75 447.363 C 1103.67 454.367 1100.42 463.576 1097.28 469.919 C 1095.63 466.851 1098.11 442.44 1099.06 437.709 C 1100.41 430.997 1103.26 422.608 1104.85 415.525 z"/>
<path transform="translate(0,0)" fill="rgb(227,227,233)" d="M 1004.05 655.072 C 1037.76 657.483 1135.74 687.225 1162 706.225 C 1158.79 707.341 1156.71 705.76 1152.45 706.063 C 1144.34 704.024 1134.24 695.587 1125.77 692.615 C 1107.41 686.178 1090.05 677.779 1070.98 673.85 C 1066.51 672.047 1056.33 673.883 1052.52 672.411 C 1035.98 666.016 1027.56 664.873 1009.86 664.698 C 1003.71 657.872 1001.35 658.507 992.704 658.47 C 995.358 657.091 1000.83 656.083 1004.05 655.072 z"/>
<path transform="translate(0,0)" fill="rgb(227,227,233)" d="M 658.945 521.641 C 662.657 522.795 665.439 523.145 667.884 526.043 C 669.119 529.719 668.926 529.702 668.433 533.387 C 666.767 535.69 657.353 546.605 656.639 548.436 C 647.461 571.964 644.372 599.904 645.447 625.122 C 645.136 625.618 644.825 626.114 644.514 626.61 L 643.131 626.38 C 635.73 621.159 642.445 618.486 639.603 611.226 C 638.22 603.422 639.092 588.585 639.469 580.198 L 645.556 573.342 C 646.255 554.371 648.938 559.389 652.57 543.317 C 656.164 540.042 662.555 535.101 663.102 530.47 C 663.37 528.205 662.835 528.671 660.857 526.11 C 660.494 524.426 660.713 525.214 658.807 523.713 L 658.945 521.641 z"/>
<path transform="translate(0,0)" fill="rgb(227,227,233)" d="M 1113.13 1038.91 C 1115.75 1039.74 1117.96 1040.66 1120.69 1040.71 C 1097.69 1049.55 1061.77 1063.01 1037.18 1066.66 C 1029.58 1063.83 1022.84 1064.84 1014.64 1065.11 C 1028.53 1059.79 1032.73 1067.59 1048.53 1055.12 C 1063.7 1055.04 1075.88 1052.25 1089.36 1045.27 C 1100.31 1039.59 1103.77 1041.91 1113.13 1038.91 z"/>
<path transform="translate(0,0)" fill="rgb(191,189,197)" d="M 1182.02 1003.4 C 1184.52 1003.74 1187.01 1004.1 1189.51 1004.47 C 1169.13 1018.65 1143.97 1032.24 1120.69 1040.71 C 1117.96 1040.66 1115.75 1039.74 1113.13 1038.91 C 1116.79 1036.88 1121.53 1036.05 1125.26 1034.41 C 1132.87 1031.07 1141.06 1027.59 1148.43 1023.81 C 1160.04 1017.86 1170.32 1009.28 1182.02 1003.4 z"/>
<path transform="translate(0,0)" fill="rgb(254,254,254)" d="M 955.075 648.951 C 969.56 649.315 989.314 653.028 1004.05 655.072 C 1000.83 656.083 995.358 657.091 992.704 658.47 C 986.767 659.51 959.679 659.602 953.679 658.679 C 953.749 654.571 954.189 656.589 951.413 652.673 L 954.745 652.012 L 954.216 651.043 L 946.99 649.497 L 955.075 648.951 z"/>
<path transform="translate(0,0)" fill="rgb(227,227,233)" d="M 1266.21 885.193 C 1269.35 877.377 1267.33 871.032 1268.51 862.62 L 1269.7 862.917 C 1270.97 894.144 1267.9 908.144 1254.13 935.828 L 1252.75 928.753 C 1253.17 925.948 1254.73 922.729 1255.76 919.91 C 1258.03 913.668 1257.65 908.147 1257.47 901.593 C 1261.48 895.536 1263.59 892.223 1266.21 885.193 z"/>
<path transform="translate(0,0)" fill="rgb(214,215,230)" d="M 1257.94 823.461 C 1259.07 821.376 1259.13 821.191 1260.54 819.284 C 1260.63 819.574 1260.72 819.865 1260.81 820.156 C 1266.83 832.994 1269.45 848.47 1269.7 862.917 L 1268.51 862.62 C 1267.33 871.032 1269.35 877.377 1266.21 885.193 C 1265.67 876.073 1265.99 862.476 1265.91 853.109 C 1263.6 850.106 1260.76 846.819 1258.33 843.854 C 1257.73 837.784 1257.94 829.715 1257.94 823.461 z"/>
<path transform="translate(0,0)" fill="rgb(227,227,233)" d="M 1221.06 755.117 L 1223.48 754.685 C 1232.43 761.181 1246.68 782.858 1250.19 794.192 C 1250.67 795.715 1249.83 796.425 1248.93 798.141 L 1246.99 798.206 C 1243.23 794.397 1238.68 784.072 1235.35 778.938 C 1230.51 771.486 1223.18 763.594 1221.06 755.117 z"/>
<path transform="translate(0,0)" fill="rgb(227,227,233)" d="M 622.681 508.412 C 635.934 512.73 646.235 516.033 658.945 521.641 L 658.807 523.713 C 660.713 525.214 660.494 524.426 660.857 526.11 C 651.986 525.744 632.791 519.249 625.271 514.436 C 624.248 512.761 622.794 511.089 621.551 509.53 L 622.681 508.412 z"/>
<path transform="translate(0,0)" fill="rgb(191,189,197)" fill-opacity="0.988235" d="M 1252.75 928.753 L 1254.13 935.828 C 1251.37 941.435 1242.21 957.641 1237 960.413 L 1235.61 959.647 C 1235.1 948.926 1245.71 941.406 1251.74 934.462 C 1252.14 932.181 1252.48 930.278 1252.75 928.753 z"/>
<path transform="translate(0,0)" fill="rgb(44,82,159)" d="M 369.598 658.065 C 387.369 656.384 411.067 641.903 428.265 637.846 C 436.905 635.807 462.328 637.193 472.073 637.173 C 475.862 637.165 476.687 637.612 478.51 639.839 C 479.859 645.202 478.62 648.859 476.341 653.813 C 467.049 665.495 462.02 665.267 453.413 674.033 C 440.249 692.938 417.676 690.166 401.874 707.776 C 394.105 708.146 388.502 707.977 381.342 711.25 C 376.68 712.448 344.571 724.844 341.835 726.837 C 341.381 727.168 340.918 727.486 340.464 727.817 C 340.162 728.037 339.867 728.267 339.569 728.492 C 333.512 728.477 329.184 728.511 323.157 727.808 C 320.878 724.91 318.615 722 316.367 719.078 L 314.956 718.001 C 312.584 712.924 314.161 702.634 314.815 696.874 C 318.566 693.906 330.77 682.363 333.528 681.583 C 341.246 679.4 355.198 669.426 361.021 667.672 C 363.759 664.849 366.928 661.067 369.598 658.065 z"/>
<path transform="translate(0,0)" fill="url(#Gradient3)" d="M 369.598 658.065 C 387.369 656.384 411.067 641.903 428.265 637.846 C 436.905 635.807 462.328 637.193 472.073 637.173 C 475.862 637.165 476.687 637.612 478.51 639.839 C 479.859 645.202 478.62 648.859 476.341 653.813 C 474.446 649.66 475.419 646.279 472.779 642.941 C 451.46 634.792 398.011 654.858 376.215 663.616 C 371.953 665.329 365.867 669.256 361.632 669.462 L 361.021 667.672 C 363.759 664.849 366.928 661.067 369.598 658.065 z"/>
<path transform="translate(0,0)" fill="rgb(227,227,233)" d="M 373.284 709.567 C 377.098 710.822 377.333 710.854 381.342 711.25 C 376.68 712.448 344.571 724.844 341.835 726.837 C 341.381 727.168 340.918 727.486 340.464 727.817 C 340.162 728.037 339.867 728.267 339.569 728.492 C 333.512 728.477 329.184 728.511 323.157 727.808 C 320.878 724.91 318.615 722 316.367 719.078 C 317.96 718.477 318.478 718.48 320.417 718.834 C 339.776 722.371 354.544 714.488 373.284 709.567 z"/>
<path transform="translate(0,0)" fill="rgb(227,227,233)" d="M 373.284 709.567 C 389.617 704.037 406.473 696.342 422.38 689.611 C 429.215 686.718 449.685 673.462 453.413 674.033 C 440.249 692.938 417.676 690.166 401.874 707.776 C 394.105 708.146 388.502 707.977 381.342 711.25 C 377.333 710.854 377.098 710.822 373.284 709.567 z"/>
<path transform="translate(0,0)" fill="rgb(44,82,159)" d="M 1268.34 440.047 C 1280.81 422.698 1313.55 427.845 1333.56 428.138 C 1343.02 427.95 1362.02 426.803 1370.37 429.557 C 1373.36 437.819 1387.62 432.219 1395.05 435.183 C 1410.85 441.491 1425.22 451.397 1440.02 459.621 C 1440.34 470.84 1441.49 478.539 1426.66 476.953 C 1422.61 476.52 1418.36 476.368 1414.25 475.78 C 1397.48 476.855 1376.32 478.423 1359.7 475.755 C 1353.02 474.682 1345.66 469.961 1338.19 468.346 C 1317.72 469.573 1283.47 476.453 1270.59 454.078 L 1269.56 453.642 C 1267.18 449.413 1267.72 444.695 1268.34 440.047 z"/>
<path transform="translate(0,0)" fill="rgb(227,227,233)" d="M 1333.56 428.138 C 1343.02 427.95 1362.02 426.803 1370.37 429.557 C 1373.36 437.819 1387.62 432.219 1395.05 435.183 C 1410.85 441.491 1425.22 451.397 1440.02 459.621 C 1440.34 470.84 1441.49 478.539 1426.66 476.953 C 1422.61 476.52 1418.36 476.368 1414.25 475.78 C 1415.57 474.893 1418.34 475.056 1420.92 474.391 L 1419.35 472.635 C 1424.44 472.757 1427.9 473.849 1430.72 469.403 C 1430.31 441.387 1346.94 434.939 1326.87 432.789 C 1329.24 432.304 1333.17 432.302 1334.52 430.859 C 1330.18 430.414 1325.84 429.887 1321.51 429.28 C 1326.64 429.226 1328.51 429.036 1333.56 428.138 z"/>
<path transform="translate(0,0)" fill="rgb(227,227,233)" d="M 1338.17 466.994 C 1360.87 466.307 1396.46 470.477 1419.35 472.635 L 1420.92 474.391 C 1418.34 475.056 1415.57 474.893 1414.25 475.78 C 1397.48 476.855 1376.32 478.423 1359.7 475.755 C 1353.02 474.682 1345.66 469.961 1338.19 468.346 L 1338.17 466.994 z"/>
<path transform="translate(0,0)" fill="rgb(227,227,233)" d="M 1270.59 454.078 C 1274.07 453.528 1280.51 458.816 1287.78 460.466 C 1304.88 464.348 1320.84 465.638 1338.17 466.994 L 1338.19 468.346 C 1317.72 469.573 1283.47 476.453 1270.59 454.078 z"/>
<path transform="translate(0,0)" fill="rgb(191,189,197)" d="M 1268.34 440.047 C 1280.81 422.698 1313.55 427.845 1333.56 428.138 C 1328.51 429.036 1326.64 429.226 1321.51 429.28 C 1325.84 429.887 1330.18 430.414 1334.52 430.859 C 1333.17 432.302 1329.24 432.304 1326.87 432.789 C 1322.19 433.18 1309.61 432.344 1304.35 432.134 C 1296.66 432.784 1286.89 433.435 1279.56 436.655 C 1275.9 438.263 1272.63 444.243 1268.8 444.704 C 1268.69 442.943 1268.71 441.766 1268.34 440.047 z"/>
<path transform="translate(0,0)" fill="rgb(214,215,230)" d="M 1304.35 432.134 C 1297.9 431.243 1292.35 432.052 1285.63 431.961 C 1299.82 429.503 1307.18 428.769 1321.51 429.28 C 1325.84 429.887 1330.18 430.414 1334.52 430.859 C 1333.17 432.302 1329.24 432.304 1326.87 432.789 C 1322.19 433.18 1309.61 432.344 1304.35 432.134 z"/>
<path transform="translate(0,0)" fill="rgb(44,82,159)" d="M 331.95 580.976 C 331.709 576.554 330.983 574.299 333.391 570.982 C 338.892 566.825 350.965 566.652 357.827 567.088 C 377.635 568.348 400.168 565.848 419.622 567.792 L 428.85 574.785 C 455.691 576.293 473.147 584.946 494.516 599.538 C 493.082 606.446 492.463 609.494 489.983 616.148 C 480.974 616.131 471.92 616.534 462.905 616.926 C 455.566 617.245 446.36 615.217 439.458 615.586 C 422.187 616.508 411.318 613.543 394.927 609.031 C 385.072 609.837 380.114 608.018 372.193 603.127 C 359.03 597.319 336.882 599.242 331.95 580.976 z"/>
<path transform="translate(0,0)" fill="rgb(227,227,233)" d="M 331.95 580.976 C 331.709 576.554 330.983 574.299 333.391 570.982 C 338.892 566.825 350.965 566.652 357.827 567.088 C 377.635 568.348 400.168 565.848 419.622 567.792 L 428.85 574.785 C 455.691 576.293 473.147 584.946 494.516 599.538 C 493.082 606.446 492.463 609.494 489.983 616.148 C 480.974 616.131 471.92 616.534 462.905 616.926 C 455.566 617.245 446.36 615.217 439.458 615.586 C 422.187 616.508 411.318 613.543 394.927 609.031 L 394.006 607.885 C 396.218 606.181 400.245 606.292 403.486 605.928 C 413.23 606.271 426.293 610.36 436.674 610.993 C 443.919 611.434 486.831 616.101 486.911 603.741 C 480.179 592.67 448.679 583.64 436.673 581.017 C 407.949 574.742 361.124 563.688 335.235 579.401 L 334.028 578.916 L 331.95 580.976 z"/>
<path transform="translate(0,0)" fill="rgb(214,215,230)" d="M 331.95 580.976 L 334.028 578.916 L 335.235 579.401 C 338.463 591.234 366.054 596.904 376.3 600.243 L 372.193 603.127 C 359.03 597.319 336.882 599.242 331.95 580.976 z"/>
<path transform="translate(0,0)" fill="rgb(227,227,233)" d="M 376.3 600.243 C 385.887 602.73 394.337 603.807 403.486 605.928 C 400.245 606.292 396.218 606.181 394.006 607.885 L 394.927 609.031 C 385.072 609.837 380.114 608.018 372.193 603.127 L 376.3 600.243 z"/>
<path transform="translate(0,0)" fill="rgb(44,82,159)" d="M 1343.7 331.36 C 1386.38 321.852 1422.4 344.887 1371.22 372.833 C 1356.21 380.079 1347.05 379.012 1332.67 385.209 C 1326.32 387.943 1321.9 396.713 1313.73 398.493 C 1311.9 399.843 1306.76 403.974 1304.51 404.058 C 1275.34 405.158 1277.68 395.037 1278.18 370.929 C 1287.32 363.127 1303.77 354.291 1310.23 347.084 C 1312.07 345.087 1330.7 338.975 1334.09 338.175 C 1337.73 337.119 1340.78 333.948 1343.7 331.36 z"/>
<path transform="translate(0,0)" fill="rgb(227,227,233)" d="M 1343.7 331.36 C 1386.38 321.852 1422.4 344.887 1371.22 372.833 L 1369.54 368.238 C 1379.48 362.924 1398.45 349.377 1382.7 338.848 C 1367.79 328.882 1346.15 339.928 1331.02 342.553 C 1331.86 341.069 1333.06 339.568 1334.09 338.175 C 1337.73 337.119 1340.78 333.948 1343.7 331.36 z"/>
<path transform="translate(0,0)" fill="rgb(227,227,233)" d="M 1310.23 347.084 C 1316.35 346.6 1320.3 344.766 1326.83 344.654 L 1326.93 345.051 L 1325.44 345.56 C 1314.01 349.541 1308.77 354.612 1299.15 361.179 C 1275.22 377.507 1275.48 404.181 1310.78 397.11 L 1313.73 398.493 C 1311.9 399.843 1306.76 403.974 1304.51 404.058 C 1275.34 405.158 1277.68 395.037 1278.18 370.929 C 1287.32 363.127 1303.77 354.291 1310.23 347.084 z"/>
<path transform="translate(0,0)" fill="rgb(227,227,233)" d="M 1310.78 397.11 C 1331.37 376.166 1341.72 377.014 1369.54 368.238 L 1371.22 372.833 C 1356.21 380.079 1347.05 379.012 1332.67 385.209 C 1326.32 387.943 1321.9 396.713 1313.73 398.493 L 1310.78 397.11 z"/>
<path transform="translate(0,0)" fill="rgb(44,82,159)" d="M 2000.95 0 L 2007.66 0 L 2029.21 0 L 2048 0 L 2048 37.0533 L 2048 58.6796 L 2048 181.018 L 2048 217.528 L 2048 297.693 L 2048 356.412 L 2048 377.658 C 2038.43 393.08 2022.64 446.825 2014.67 466.607 C 2013.15 470.372 2013.49 478.348 2012.13 482.316 C 2011.04 485.502 2004.96 493.061 2004.37 495.885 C 2002.62 504.243 2002.68 511.703 2000.2 520.086 C 1998.36 526.29 1991.55 533.293 1989.99 537.119 C 1985.78 547.515 1976.71 570.916 1976.43 581.069 L 1976.08 590.337 C 1963.91 605.441 1960.44 619.562 1954.27 637.698 C 1952.05 644.216 1952.38 645.642 1952.88 652.353 C 1952.98 653.701 1944.3 663.765 1944.14 666.282 C 1943.34 669.328 1944.15 680.185 1942.65 682.835 C 1938.37 690.39 1933.25 694.257 1930.29 703.13 L 1891.63 821.769 C 1890.35 825.757 1885.83 830.378 1884.16 834.469 C 1881.38 841.951 1881.04 851.324 1878.3 858.717 C 1875.29 866.834 1869.42 875.027 1866.6 883.252 C 1863.65 891.843 1861.03 901.294 1858.77 910.067 C 1857.11 916.533 1856.69 920.972 1852.82 926.467 C 1847.08 934.618 1849.18 946.14 1846.14 955.192 C 1844.26 960.787 1837.94 966.423 1835.88 971.62 C 1830.43 985.3 1826.2 999.648 1821.33 1013.54 C 1815.73 1029.52 1811.03 1039.94 1810.04 1057.18 C 1798.1 1070.27 1797.02 1081.38 1791.34 1097.49 C 1781.84 1124.42 1772.4 1150.35 1766.23 1178.32 L 1764.23 1178.19 C 1757.46 1187.7 1742.07 1240.28 1736.08 1253.95 C 1734.98 1256.48 1734.49 1271.76 1733.72 1273.37 C 1729.85 1281.46 1724.25 1286.37 1720.86 1295.39 C 1717.35 1304.7 1716.7 1321.4 1713.67 1329.73 C 1707.5 1346.27 1701.47 1362.77 1695.6 1379.44 C 1686.8 1404.44 1678.84 1429.83 1668.24 1454.13 C 1666.58 1457.93 1663.42 1457.43 1659.91 1457.47 C 1647.31 1465.04 1653.64 1493.64 1636.6 1491.84 C 1624.4 1507.18 1628.11 1513.74 1620.91 1527.55 C 1614.31 1527.84 1619.7 1523.07 1612.47 1528.1 C 1605.34 1533.05 1600.85 1560.2 1596.53 1561.6 L 1592.11 1558.96 C 1589.69 1560.71 1590.75 1559.66 1589.48 1562.75 C 1582.98 1577.29 1577.17 1596.23 1570.93 1608.72 C 1566.16 1610.66 1553.52 1614.98 1550.18 1616.78 C 1544.34 1627.6 1536.62 1637.99 1531.47 1646.59 C 1526.37 1655.11 1542.04 1665.41 1526.19 1678 C 1523.34 1680.3 1507.64 1691.05 1504.42 1691.8 C 1500.04 1697.64 1496.55 1702.93 1492.56 1709.06 C 1483.5 1709.38 1481.6 1710.62 1473.37 1714.33 C 1458.32 1721.12 1442.25 1726.85 1425.9 1729.24 C 1418.8 1737.22 1402.51 1744.54 1391.87 1741.76 C 1385.93 1747.22 1365.61 1757.82 1357.22 1757.41 C 1355.2 1757.31 1354.86 1757.76 1352.94 1758.84 C 1348.96 1762.11 1332.54 1769.99 1327.22 1773.34 C 1320.11 1777.8 1307.67 1779.55 1299.74 1782.72 C 1287.18 1787.54 1282.53 1791.53 1268.59 1795.29 C 1251.05 1807.22 1249.18 1804.05 1229.61 1806.26 C 1202 1816.03 1189.61 1814.45 1160.55 1814.16 C 1155.67 1814.11 1152.78 1818.17 1146.14 1818.14 C 1134.89 1819.63 1094.02 1818.6 1080.58 1818.61 L 1025.12 1818.64 C 1015.44 1818.64 1002.32 1819 992.964 1818.14 C 985.302 1818.62 973.744 1812.92 963.95 1813.31 C 955.675 1813.64 939.343 1803.06 932.774 1797.23 C 927.159 1793.2 926.381 1791.16 923.443 1784.79 C 937.507 1763.41 949.774 1757.76 972.288 1747.82 C 972.748 1747.53 973.209 1747.23 973.669 1746.94 C 957.795 1748.5 952.603 1752.48 933.981 1750.66 C 926.023 1752.94 924.278 1753.85 917.708 1758.78 C 906.521 1759.05 895.325 1758.3 884.496 1758.76 C 877.259 1760.13 871.823 1763.69 864.489 1765.01 C 859.598 1765.89 841.384 1763.04 838.651 1764.44 C 824.04 1771.92 813.97 1773.05 797.527 1774.1 C 789.327 1774.62 779.408 1778.2 770.828 1778.53 C 765.453 1779.12 755.527 1778.8 751.337 1779.62 C 735.945 1785.54 727.789 1784.54 711.698 1785.94 C 707.116 1786.34 700.492 1791.97 695.79 1793.08 C 679.659 1794.42 669.984 1791.13 655.224 1799.74 C 652.786 1801.16 632.131 1798.52 627.768 1799.24 C 618.856 1799.83 607.61 1804.59 598.623 1805.68 C 589.024 1806.85 582.236 1805.22 572.032 1806.45 C 555.873 1811.8 546.669 1814.96 529.052 1814.24 C 514.926 1813.66 499.75 1814.36 485.44 1813.86 C 475.972 1814.24 467.5 1814.11 458.064 1813.93 C 447.172 1805.41 435.406 1805.08 431.356 1791.99 C 430.766 1788.35 431.902 1782.82 432.429 1778.91 C 438.865 1770.28 450.484 1759.41 459.781 1754.32 C 461.974 1754.11 472.552 1749.24 475.922 1747.94 C 481.634 1745.74 495.121 1744.17 498.575 1741.89 L 498.588 1738.1 C 503.23 1736.31 520.118 1738.16 528.408 1735.51 C 528.892 1734.89 531.484 1731.63 532.035 1731.56 C 538.359 1730.79 545.645 1730.41 551.873 1729.65 C 559.493 1728.71 567.63 1726.24 575.164 1725.32 C 583.767 1724.28 591.701 1723.72 600.34 1722.52 L 604.304 1720.59 C 615.13 1715.24 620.692 1717 632.447 1715.5 C 639.893 1714.77 647.523 1711.74 654.875 1710.87 C 671.093 1708.94 678.737 1712.64 692.491 1702.12 C 704.361 1701.49 716.136 1702.86 727.937 1701.64 C 733.873 1701.03 730.714 1696.35 735.151 1696.09 C 745.872 1695.45 756.733 1696.56 767.397 1694.97 C 775.524 1693.39 780.755 1689.32 790.662 1687.79 C 798.365 1686.6 821.277 1689.38 825.395 1686.24 L 825.09 1683.11 L 826.03 1682.13 C 838.114 1680.63 853.508 1681.38 866.056 1681.57 C 878.72 1671.42 903.546 1673.07 919.89 1673.22 C 936.883 1659.53 960.982 1672.46 972.547 1664.76 C 972.372 1662.38 972.287 1663.47 972.667 1661.46 C 983.427 1660.1 1005.84 1660.97 1017.91 1660.94 L 1030.43 1652.85 C 1039.38 1652.54 1077.79 1654.8 1082.24 1650.4 L 1081.14 1647.64 C 1085.62 1644.87 1124.34 1647.7 1132.53 1646.94 C 1138.81 1646.35 1138.28 1642.3 1145.38 1641.44 C 1167.68 1638.75 1188.44 1638.17 1210.78 1638.42 C 1220.68 1628.96 1231.5 1632.26 1244.77 1632 C 1262.17 1631.66 1279.78 1632.78 1297.19 1632.27 C 1303.95 1632.07 1311.58 1626.67 1318.52 1626.33 C 1359.14 1625.46 1399.83 1626.11 1440.46 1626.03 C 1446.89 1625.68 1452.49 1630.41 1458.57 1631.38 C 1469.14 1633.06 1481.12 1632.24 1491.81 1632.02 C 1490.43 1605.77 1496.4 1576.88 1500.78 1550.97 C 1503.97 1531.7 1506.44 1512.32 1508.2 1492.87 C 1507.17 1473.38 1513.41 1458.75 1502.54 1443.37 C 1498.8 1438.09 1507.56 1414.12 1509.84 1406.5 L 1502.61 1399.12 C 1519.17 1356.98 1532.59 1312.1 1547.7 1269.3 C 1550.86 1260.32 1558.66 1251.51 1561.95 1242.32 C 1566.06 1230.83 1569.73 1219.16 1573.84 1207.68 L 1607.86 1111.04 L 1662.57 956.126 L 1845.27 440.922 L 1964.77 101.958 C 1976.28 70.2072 1988.33 30.4758 2000.95 0 z"/>
<path transform="translate(0,0)" fill="rgb(254,254,254)" d="M 2029.21 0 L 2048 0 L 2048 37.0533 L 2048 58.6796 L 2048 181.018 L 2048 217.528 L 2048 297.693 C 2042.06 306.509 2044.03 311.459 2039.55 320.891 C 2035.58 329.236 2034.8 324.617 2032.47 329.267 C 2035.19 335.882 2032.63 339.11 2030.68 345.813 C 2023.36 371.052 2011.58 394.458 2004.13 419.598 C 2003.26 422.516 1999.79 426.379 1999.14 428.545 C 1982.93 482.824 1963.81 536.456 1943.78 589.53 C 1937.96 604.926 1927.54 650.494 1915.76 659.842 L 1917.85 672.551 C 1915.42 675.799 1912.11 679.154 1909.31 682.164 C 1908.58 686.635 1908.23 691.344 1906.95 695.7 C 1904.31 704.615 1898.98 712.656 1895.98 721.48 C 1892.73 731.026 1891.25 741.063 1887.85 750.608 C 1881.78 767.693 1875.95 784.987 1869.57 801.95 C 1861.85 822.442 1835.52 885.159 1834.77 903.249 C 1834.25 915.789 1823.14 919.265 1823.24 926.098 C 1823.26 927.995 1823.5 930.109 1823.13 931.981 C 1821.91 938.241 1817.07 946.084 1814.87 952.357 L 1788.63 1025.32 C 1785.7 1033.21 1784.62 1041.99 1781.83 1050.07 C 1754.72 1128.59 1724.19 1206 1699.23 1285.23 C 1693.85 1302.29 1687.28 1308.27 1685.17 1327.08 C 1674.43 1338.84 1667.56 1384.47 1658.41 1395.61 C 1655.16 1397.22 1651.74 1396.36 1648.04 1395.94 C 1644.01 1392.35 1638.01 1385.99 1633.72 1383.17 C 1623.53 1376.45 1610.31 1397.78 1600.95 1395.96 C 1584.05 1392.66 1589.61 1375.23 1579.01 1363.71 L 1578.14 1362.78 C 1563.52 1362.49 1557.39 1368.52 1548.17 1355.25 C 1551.52 1348.1 1553.12 1340.63 1556.12 1333.62 C 1562.63 1318.45 1568.13 1303.43 1572.8 1287.59 C 1573.61 1283 1580.04 1272.37 1580.42 1268.56 C 1581.96 1253.25 1587.07 1243.32 1592.21 1229.2 L 1619.43 1152.53 L 1654.29 1055.04 C 1660.07 1038.92 1666.22 1022.7 1671.41 1006.39 C 1672.51 1002.43 1677.17 998.53 1678.2 994.803 C 1685.61 967.74 1694.64 941.474 1705.52 915.591 C 1708.9 907.54 1709.95 894.74 1715.88 888.283 C 1720.26 883.513 1714.9 877.668 1716.99 871.812 C 1721.13 862.752 1725.87 854.491 1729.86 845.298 C 1736.57 829.832 1740.49 813.387 1747.8 798.015 C 1749.13 795.213 1748.94 790.026 1749.98 786.934 C 1756.04 768.84 1762.03 750.762 1768.63 732.853 C 1771.51 725.053 1773.62 716.866 1776.26 708.989 C 1778.61 702.03 1785.4 692.263 1787.43 685.641 C 1793.15 666.933 1792.4 661.275 1802.14 644.018 C 1802.02 640.318 1801.64 636.16 1801.38 632.426 L 1811.01 623.601 C 1811.63 598.712 1825.35 574.872 1833.61 551.638 L 1925.75 293.261 C 1933.96 270.838 1939.04 243.335 1949.49 221.884 C 1960.24 199.821 1964.01 174.869 1976.8 153.81 C 1978.45 151.102 1975.39 146.949 1976.82 143.475 C 1996.19 96.597 2007.91 46.0695 2029.21 0 z"/>
<path transform="translate(0,0)" fill="rgb(44,82,159)" d="M 2048 58.6796 C 2031.73 113.777 2009.15 166.19 1991.81 220.978 C 1989.54 228.135 1985.97 235.467 1983.44 242.649 L 1812.37 726.003 L 1668.53 1133.16 L 1618.3 1275.12 C 1611.18 1295.06 1603.86 1319.57 1595.8 1338.87 C 1592.74 1340.75 1586.55 1340.11 1585.67 1334.59 C 1584.48 1327.13 1588.33 1321 1590.64 1313.86 C 1610.04 1254.01 1632.43 1194.87 1653.37 1135.6 L 1849.58 578.114 L 1884.54 478.113 C 1888.5 467.096 1894.59 456.093 1898.05 445.104 C 1924.41 361.535 1956.98 279.951 1985.61 197.214 L 2022.72 89.9299 C 2028.01 74.8397 2032.86 57.8815 2039.65 43.5364 C 2042.07 38.4196 2043.43 38.429 2048 37.0533 L 2048 58.6796 z"/>
<path transform="translate(0,0)" fill="rgb(44,82,159)" d="M 2048 181.018 L 2048 217.528 C 2023.67 293.822 1994.95 369.612 1968.86 445.401 C 1965.87 454.09 1961.37 462.37 1958.32 470.906 L 1740.18 1090.19 C 1737.03 1099.01 1734.4 1109.31 1731.19 1117.72 C 1724.34 1136.24 1717.39 1154.71 1710.93 1173.38 C 1690.09 1233.63 1670.16 1294.7 1645.89 1353.57 C 1644.82 1356.16 1640.93 1356.74 1638.69 1357.03 C 1629.3 1353.12 1640.37 1332.14 1643.02 1324.78 L 1657.58 1283.99 L 1699.4 1164.85 L 1959.56 429.878 C 1970.41 400.114 1980.21 368.66 1990.77 338.775 L 2021.1 255.209 C 2028.33 235.159 2039.19 198.697 2048 181.018 z"/>
<path transform="translate(0,0)" fill="rgb(254,254,254)" d="M 2000.95 0 L 2007.66 0 C 2000.92 12.2683 1996.28 29.5424 1991.37 42.9098 C 1982.46 67.1369 1974.5 92.7329 1965.6 116.862 C 1920.75 240.324 1877.14 364.234 1834.78 488.575 C 1829.91 502.967 1822.68 518.717 1818.14 532.653 C 1811.28 553.704 1803.75 573.24 1796.46 593.894 L 1688.44 898.582 L 1575.06 1220.01 C 1571.85 1229.25 1570.99 1240.61 1567.59 1249.11 C 1552.51 1286.77 1537.52 1325.5 1525.56 1364.26 C 1515.98 1395.31 1517.45 1431.46 1511.17 1463.35 C 1509.89 1470.45 1511.22 1488.06 1508.2 1492.87 C 1507.17 1473.38 1513.41 1458.75 1502.54 1443.37 C 1498.8 1438.09 1507.56 1414.12 1509.84 1406.5 L 1502.61 1399.12 C 1519.17 1356.98 1532.59 1312.1 1547.7 1269.3 C 1550.86 1260.32 1558.66 1251.51 1561.95 1242.32 C 1566.06 1230.83 1569.73 1219.16 1573.84 1207.68 L 1607.86 1111.04 L 1662.57 956.126 L 1845.27 440.922 L 1964.77 101.958 C 1976.28 70.2072 1988.33 30.4758 2000.95 0 z"/>
<path transform="translate(0,0)" fill="rgb(227,227,233)" d="M 1575.71 1572.17 C 1577.35 1567.92 1581.82 1561.56 1584.34 1557.34 C 1609.94 1514.55 1639.46 1474.06 1664.77 1431.03 C 1671.32 1419.89 1675.83 1401.46 1682.2 1389.29 C 1685.73 1382.54 1687.24 1370.4 1690.62 1362.61 C 1699.36 1342.49 1704.82 1320.79 1711.95 1300.07 C 1715.03 1290.96 1721.37 1281.56 1724.56 1272.31 C 1728.09 1262.12 1730.2 1251.3 1733.76 1241.14 L 1826.91 977.405 L 1980.77 543.592 C 1984.8 532.219 1990.73 521.32 1994.23 509.925 C 2010.11 458.147 2030.9 407.743 2048 356.412 L 2048 377.658 C 2038.43 393.08 2022.64 446.825 2014.67 466.607 C 2013.15 470.372 2013.49 478.348 2012.13 482.316 C 2011.04 485.502 2004.96 493.061 2004.37 495.885 C 2002.62 504.243 2002.68 511.703 2000.2 520.086 C 1998.36 526.29 1991.55 533.293 1989.99 537.119 C 1985.78 547.515 1976.71 570.916 1976.43 581.069 L 1976.08 590.337 C 1963.91 605.441 1960.44 619.562 1954.27 637.698 C 1952.05 644.216 1952.38 645.642 1952.88 652.353 C 1952.98 653.701 1944.3 663.765 1944.14 666.282 C 1943.34 669.328 1944.15 680.185 1942.65 682.835 C 1938.37 690.39 1933.25 694.257 1930.29 703.13 L 1891.63 821.769 C 1890.35 825.757 1885.83 830.378 1884.16 834.469 C 1881.38 841.951 1881.04 851.324 1878.3 858.717 C 1875.29 866.834 1869.42 875.027 1866.6 883.252 C 1863.65 891.843 1861.03 901.294 1858.77 910.067 C 1857.11 916.533 1856.69 920.972 1852.82 926.467 C 1847.08 934.618 1849.18 946.14 1846.14 955.192 C 1844.26 960.787 1837.94 966.423 1835.88 971.62 C 1830.43 985.3 1826.2 999.648 1821.33 1013.54 C 1815.73 1029.52 1811.03 1039.94 1810.04 1057.18 C 1798.1 1070.27 1797.02 1081.38 1791.34 1097.49 C 1781.84 1124.42 1772.4 1150.35 1766.23 1178.32 L 1764.23 1178.19 C 1757.46 1187.7 1742.07 1240.28 1736.08 1253.95 C 1734.98 1256.48 1734.49 1271.76 1733.72 1273.37 C 1729.85 1281.46 1724.25 1286.37 1720.86 1295.39 C 1717.35 1304.7 1716.7 1321.4 1713.67 1329.73 C 1707.5 1346.27 1701.47 1362.77 1695.6 1379.44 C 1686.8 1404.44 1678.84 1429.83 1668.24 1454.13 C 1666.58 1457.93 1663.42 1457.43 1659.91 1457.47 C 1647.31 1465.04 1653.64 1493.64 1636.6 1491.84 C 1624.4 1507.18 1628.11 1513.74 1620.91 1527.55 C 1614.31 1527.84 1619.7 1523.07 1612.47 1528.1 C 1605.34 1533.05 1600.85 1560.2 1596.53 1561.6 L 1592.11 1558.96 C 1589.69 1560.71 1590.75 1559.66 1589.48 1562.75 L 1588.27 1559.44 C 1583.98 1560.67 1583.1 1567.6 1575.71 1572.17 z"/>
<path transform="translate(0,0)" fill="rgb(227,227,233)" d="M 1210.78 1638.42 C 1220.68 1628.96 1231.5 1632.26 1244.77 1632 C 1262.17 1631.66 1279.78 1632.78 1297.19 1632.27 C 1303.95 1632.07 1311.58 1626.67 1318.52 1626.33 C 1359.14 1625.46 1399.83 1626.11 1440.46 1626.03 C 1446.89 1625.68 1452.49 1630.41 1458.57 1631.38 C 1469.14 1633.06 1481.12 1632.24 1491.81 1632.02 L 1492.8 1631.95 C 1493.02 1636.29 1492.8 1636.92 1491.88 1641.25 C 1486.64 1642.29 1468.19 1637.63 1460.99 1637.13 C 1317.1 1627.04 1169.66 1646.44 1027.13 1663.89 C 953.614 1672.86 880.234 1682.91 807.014 1694.05 L 667.375 1715.92 C 653.727 1718.11 614.438 1725.91 602.719 1726.27 C 600.965 1725.65 598.928 1725.84 596.962 1725.8 L 600.34 1722.52 L 604.304 1720.59 C 615.13 1715.24 620.692 1717 632.447 1715.5 C 639.893 1714.77 647.523 1711.74 654.875 1710.87 C 671.093 1708.94 678.737 1712.64 692.491 1702.12 C 704.361 1701.49 716.136 1702.86 727.937 1701.64 C 733.873 1701.03 730.714 1696.35 735.151 1696.09 C 745.872 1695.45 756.733 1696.56 767.397 1694.97 C 775.524 1693.39 780.755 1689.32 790.662 1687.79 C 798.365 1686.6 821.277 1689.38 825.395 1686.24 L 825.09 1683.11 L 826.03 1682.13 C 838.114 1680.63 853.508 1681.38 866.056 1681.57 C 878.72 1671.42 903.546 1673.07 919.89 1673.22 C 936.883 1659.53 960.982 1672.46 972.547 1664.76 C 972.372 1662.38 972.287 1663.47 972.667 1661.46 C 983.427 1660.1 1005.84 1660.97 1017.91 1660.94 L 1030.43 1652.85 C 1039.38 1652.54 1077.79 1654.8 1082.24 1650.4 L 1081.14 1647.64 C 1085.62 1644.87 1124.34 1647.7 1132.53 1646.94 C 1138.81 1646.35 1138.28 1642.3 1145.38 1641.44 C 1167.68 1638.75 1188.44 1638.17 1210.78 1638.42 z"/>
<path transform="translate(0,0)" fill="rgb(227,227,233)" d="M 752.002 1775.31 C 794.125 1768.82 836.602 1760.4 879.082 1755.15 C 893.915 1753.32 905.778 1749.71 921.671 1748.95 C 925.573 1749.13 930.503 1749.03 933.981 1750.66 C 926.023 1752.94 924.278 1753.85 917.708 1758.78 C 906.521 1759.05 895.325 1758.3 884.496 1758.76 C 877.259 1760.13 871.823 1763.69 864.489 1765.01 C 859.598 1765.89 841.384 1763.04 838.651 1764.44 C 824.04 1771.92 813.97 1773.05 797.527 1774.1 C 789.327 1774.62 779.408 1778.2 770.828 1778.53 C 765.453 1779.12 755.527 1778.8 751.337 1779.62 L 752.002 1775.31 z"/>
<path transform="translate(0,0)" fill="rgb(227,227,233)" d="M 570.883 1802.96 C 586.984 1799.68 606.181 1798.78 622.602 1796.28 C 665.785 1789.6 708.919 1782.61 752.002 1775.31 L 751.337 1779.62 C 735.945 1785.54 727.789 1784.54 711.698 1785.94 C 707.116 1786.34 700.492 1791.97 695.79 1793.08 C 679.659 1794.42 669.984 1791.13 655.224 1799.74 C 652.786 1801.16 632.131 1798.52 627.768 1799.24 C 618.856 1799.83 607.61 1804.59 598.623 1805.68 C 589.024 1806.85 582.236 1805.22 572.032 1806.45 C 572.484 1804.57 572.11 1805.48 574.533 1803.98 L 573.206 1804.2 L 573.278 1803.05 L 570.883 1802.96 z"/>
<path transform="translate(0,0)" fill="url(#Gradient2)" d="M 431.356 1791.99 L 433.563 1791.45 L 434.258 1792.22 C 442.401 1801.02 447.878 1802.28 459.701 1804.7 C 463.951 1804.75 468.931 1805.36 473.217 1805.75 C 505.696 1808.69 538.405 1805.46 570.883 1802.96 L 573.278 1803.05 L 573.206 1804.2 L 574.533 1803.98 C 572.11 1805.48 572.484 1804.57 572.032 1806.45 C 555.873 1811.8 546.669 1814.96 529.052 1814.24 C 514.926 1813.66 499.75 1814.36 485.44 1813.86 C 475.972 1814.24 467.5 1814.11 458.064 1813.93 C 447.172 1805.41 435.406 1805.08 431.356 1791.99 z"/>
<path transform="translate(0,0)" fill="rgb(214,215,230)" d="M 431.356 1791.99 L 433.563 1791.45 L 434.258 1792.22 C 442.401 1801.02 447.878 1802.28 459.701 1804.7 C 471.067 1812.25 487.814 1809.17 491.493 1812.47 C 488.942 1813.36 488.138 1813.43 485.44 1813.86 C 475.972 1814.24 467.5 1814.11 458.064 1813.93 C 447.172 1805.41 435.406 1805.08 431.356 1791.99 z"/>
<path transform="translate(0,0)" fill="rgb(227,227,233)" d="M 459.781 1754.32 C 461.974 1754.11 472.552 1749.24 475.922 1747.94 C 481.634 1745.74 495.121 1744.17 498.575 1741.89 L 498.588 1738.1 C 503.23 1736.31 520.118 1738.16 528.408 1735.51 C 528.892 1734.89 531.484 1731.63 532.035 1731.56 C 538.359 1730.79 545.645 1730.41 551.873 1729.65 C 559.493 1728.71 567.63 1726.24 575.164 1725.32 C 583.767 1724.28 591.701 1723.72 600.34 1722.52 L 596.962 1725.8 C 598.928 1725.84 600.965 1725.65 602.719 1726.27 C 594.301 1728.82 560.232 1734.57 549.698 1736.52 C 514.237 1743.06 489.163 1749.25 455.212 1760.53 C 455.929 1757.6 457.402 1756.89 459.781 1754.32 z"/>
<path transform="translate(0,0)" fill="url(#Gradient1)" d="M 1115.23 1811.11 C 1126.85 1810.86 1141.04 1811.33 1152.42 1810.27 C 1177.82 1807.9 1204.01 1804.19 1229.53 1802.94 C 1232.45 1803.18 1232.45 1802.57 1233.69 1803.94 C 1231.89 1804.62 1231.05 1804.98 1229.61 1806.26 C 1202 1816.03 1189.61 1814.45 1160.55 1814.16 C 1155.67 1814.11 1152.78 1818.17 1146.14 1818.14 C 1134.09 1816.78 1118.7 1819.02 1107.57 1817.17 L 1109.14 1816.53 L 1109.55 1814.43 C 1107.45 1812.78 1108.63 1813.31 1106.04 1812.79 C 1108.69 1811.81 1112.36 1811.51 1115.23 1811.11 z"/>
<path transform="translate(0,0)" fill="rgb(227,227,233)" d="M 1391.87 1741.76 C 1398.65 1735.34 1459.64 1716.84 1470.73 1708.92 C 1480.55 1701.91 1492.49 1692.93 1504.42 1691.8 C 1500.04 1697.64 1496.55 1702.93 1492.56 1709.06 C 1483.5 1709.38 1481.6 1710.62 1473.37 1714.33 C 1458.32 1721.12 1442.25 1726.85 1425.9 1729.24 C 1418.8 1737.22 1402.51 1744.54 1391.87 1741.76 z"/>
<path transform="translate(0,0)" fill="rgb(254,254,254)" d="M 1575.71 1572.17 C 1583.1 1567.6 1583.98 1560.67 1588.27 1559.44 L 1589.48 1562.75 C 1582.98 1577.29 1577.17 1596.23 1570.93 1608.72 C 1566.16 1610.66 1553.52 1614.98 1550.18 1616.78 L 1548.97 1613.12 C 1560.26 1597.07 1565.65 1588.85 1575.71 1572.17 z"/>
<path transform="translate(0,0)" fill="rgb(134,154,202)" d="M 1025.53 1811.6 C 1055.59 1812.26 1085.55 1810.65 1115.23 1811.11 C 1112.36 1811.51 1108.69 1811.81 1106.04 1812.79 C 1108.63 1813.31 1107.45 1812.78 1109.55 1814.43 L 1109.14 1816.53 L 1107.57 1817.17 C 1118.7 1819.02 1134.09 1816.78 1146.14 1818.14 C 1134.89 1819.63 1094.02 1818.6 1080.58 1818.61 L 1025.12 1818.64 C 1015.44 1818.64 1002.32 1819 992.964 1818.14 C 997.672 1817.81 1001.4 1817.5 1006.15 1817.65 C 1011.64 1817.7 1027 1818.69 1030.42 1815.47 C 1029.3 1812.49 1029.55 1813.42 1025.53 1811.6 z"/>
<path transform="translate(0,0)" fill="rgb(227,227,233)" d="M 971.699 1741.8 C 976.072 1741.1 995.515 1738.62 996.084 1743.71 C 985.663 1756.63 925.096 1757.41 934.223 1795.79 L 932.774 1797.23 C 927.159 1793.2 926.381 1791.16 923.443 1784.79 C 937.507 1763.41 949.774 1757.76 972.288 1747.82 C 972.748 1747.53 973.209 1747.23 973.669 1746.94 L 969.648 1745.63 C 970.996 1744.2 971.174 1743.69 971.699 1741.8 z"/>
<path transform="translate(0,0)" fill="rgb(214,215,230)" d="M 934.223 1795.79 C 947.408 1803.94 976.185 1810.21 991.858 1811.08 C 997.517 1812.24 1004.99 1812.54 1009.67 1814.25 L 1010.34 1815.67 C 1008.51 1817.23 1008.52 1817.06 1006.15 1817.65 C 1001.4 1817.5 997.672 1817.81 992.964 1818.14 C 985.302 1818.62 973.744 1812.92 963.95 1813.31 C 955.675 1813.64 939.343 1803.06 932.774 1797.23 L 934.223 1795.79 z"/>
<path transform="translate(0,0)" fill="rgb(227,227,233)" d="M 1266.75 1791.26 C 1287.89 1782.88 1308.8 1774.35 1329.84 1765.72 C 1336.9 1762.83 1344.33 1760.93 1352.09 1757.77 L 1352.94 1758.84 C 1348.96 1762.11 1332.54 1769.99 1327.22 1773.34 C 1320.11 1777.8 1307.67 1779.55 1299.74 1782.72 C 1287.18 1787.54 1282.53 1791.53 1268.59 1795.29 L 1272.18 1791.38 L 1266.75 1791.26 z"/>
<path transform="translate(0,0)" fill="rgb(227,227,233)" d="M 1522.98 1655.89 C 1528.62 1643.71 1541.32 1626.6 1548.97 1613.12 L 1550.18 1616.78 C 1544.34 1627.6 1536.62 1637.99 1531.47 1646.59 C 1526.37 1655.11 1542.04 1665.41 1526.19 1678 L 1525.51 1676.2 C 1527.04 1666.35 1528.29 1663.72 1522.98 1655.89 z"/>
<path transform="translate(0,0)" fill="rgb(214,215,230)" d="M 921.671 1748.95 C 932.651 1746.72 960.867 1742.55 971.699 1741.8 C 971.174 1743.69 970.996 1744.2 969.648 1745.63 L 973.669 1746.94 C 957.795 1748.5 952.603 1752.48 933.981 1750.66 C 930.503 1749.03 925.573 1749.13 921.671 1748.95 z"/>
<path transform="translate(0,0)" fill="rgb(227,227,233)" d="M 1229.53 1802.94 C 1247.14 1799.74 1250.71 1798.9 1266.75 1791.26 L 1272.18 1791.38 L 1268.59 1795.29 C 1251.05 1807.22 1249.18 1804.05 1229.61 1806.26 C 1231.05 1804.98 1231.89 1804.62 1233.69 1803.94 C 1232.45 1802.57 1232.45 1803.18 1229.53 1802.94 z"/>
<path transform="translate(0,0)" fill="rgb(153,170,213)" d="M 991.858 1811.08 C 1003.08 1811.06 1014.31 1811.23 1025.53 1811.6 C 1029.55 1813.42 1029.3 1812.49 1030.42 1815.47 C 1027 1818.69 1011.64 1817.7 1006.15 1817.65 C 1008.52 1817.06 1008.51 1817.23 1010.34 1815.67 L 1009.67 1814.25 C 1004.99 1812.54 997.517 1812.24 991.858 1811.08 z"/>
<path transform="translate(0,0)" fill="rgb(254,254,254)" d="M 1540.32 1386.24 C 1550.93 1392.69 1551.6 1389.19 1563.18 1389.43 C 1569.71 1389.56 1569.88 1402.24 1575.66 1408.11 C 1586.35 1418.98 1600.2 1418.31 1614.15 1419.14 C 1618.41 1413.99 1619.41 1412.74 1625.57 1409.71 C 1636.84 1419.85 1629.01 1421.05 1646.99 1423.71 C 1641.59 1437.37 1617.18 1464.77 1615.59 1472.25 C 1614.77 1476.06 1594.17 1511.27 1592.12 1512.77 C 1591.23 1513.42 1589.91 1514.06 1588.93 1514.65 C 1583.81 1517.7 1583.94 1525.92 1580.54 1530.51 C 1578.42 1533.36 1575.28 1535.91 1572.67 1538.32 C 1564.92 1550.18 1545.1 1588.07 1536.81 1595.7 C 1506.53 1586.73 1518.4 1586.2 1521.55 1559.45 C 1523.65 1541.71 1527.15 1524.92 1523.64 1507.37 C 1530.31 1498.17 1530.91 1497.88 1526.35 1487.56 C 1530.53 1472.68 1529.97 1460.21 1533.81 1446.45 C 1534.15 1445.73 1536.17 1442.48 1536.16 1441.85 C 1535.9 1422.97 1535.42 1404.86 1540.32 1386.24 z"/>
</svg>