<?xml version="1.0" encoding="UTF-8"?>
<!--Generator: Apple Native CoreSVG 326-->
<!DOCTYPE svg
PUBLIC "-//W3C//DTD SVG 1.1//EN"
       "http://www.w3.org/Graphics/SVG/1.1/DTD/svg11.dtd">
<svg version="1.1" xmlns="http://www.w3.org/2000/svg" xmlns:xlink="http://www.w3.org/1999/xlink" viewBox="0 0 349.658 365.186">
 <g>
  <rect height="365.186" opacity="0" width="349.658" x="0" y="0"/>
  <path d="M33.1055 365.186C39.9902 365.186 45.4102 359.619 45.4102 352.734L45.4102 244.629C50.8301 243.018 68.4082 235.693 97.2656 235.693C166.553 235.693 209.326 269.678 275.537 269.678C304.102 269.678 315.674 266.455 329.443 260.303C341.602 254.736 349.658 245.801 349.658 230.42L349.658 41.0156C349.658 31.4941 342.041 26.2207 332.227 26.2207C323.145 26.2207 305.713 34.4238 273.193 34.4238C206.836 34.4238 164.062 0.439453 94.9219 0.439453C66.3574 0.439453 54.9316 3.66211 41.1621 9.81445C28.8574 15.3809 20.8008 24.3164 20.8008 39.6973L20.8008 352.734C20.8008 359.473 26.5137 365.186 33.1055 365.186ZM275.537 245.068C212.109 245.068 168.75 211.23 97.2656 211.23C77.4902 211.23 59.0332 213.428 45.4102 218.555L45.4102 39.9902C48.3398 33.5449 65.332 25.0488 94.9219 25.0488C161.279 25.0488 204.639 58.8867 273.193 58.8867C293.115 58.8867 309.961 56.6895 325.195 52.2949L325.195 230.127C322.266 236.572 305.273 245.068 275.537 245.068Z" fill="white" fill-opacity="0.85"/>
 </g>
</svg>
