<?xml version="1.0" encoding="UTF-8"?>
<svg width="1024px" height="1024px" viewBox="0 0 1024 1024" version="1.1" xmlns="http://www.w3.org/2000/svg" xmlns:xlink="http://www.w3.org/1999/xlink">
    <title>1 - Layer</title>
    <g id="Template---App-Icons" stroke="none" stroke-width="1" fill="none" fill-rule="evenodd">
        <g id="1---Layer" fill="color(display-p3 1.000 1.000 1.000)" fill-rule="nonzero">
            <g id="ô€…" transform="translate(36, 94)">
                <path d="M115.527344,671.443359 C122.591146,671.443359 128.458659,669.563477 133.129883,665.803711 C137.801107,662.043945 141.503906,655.948568 144.238281,647.517578 L172.607422,563.777344 L306.25,563.777344 L334.619141,647.517578 C337.353516,656.176432 341.113281,662.328776 345.898438,665.974609 C350.683594,669.620443 356.608073,671.443359 363.671875,671.443359 C372.330729,671.443359 379.280599,669.050781 384.521484,664.265625 C389.76237,659.480469 392.382812,653.214193 392.382812,645.466797 C392.382812,642.048828 391.984049,638.687826 391.186523,635.383789 C390.388997,632.079753 389.306641,628.604818 387.939453,624.958984 L281.640625,342.634766 C277.766927,332.152995 272.241211,324.234701 265.063477,318.879883 C257.885742,313.525065 249.283854,310.847656 239.257812,310.847656 C229.459635,310.847656 221.028646,313.411133 213.964844,318.538086 C206.901042,323.665039 201.318359,331.697266 197.216797,342.634766 L90.9179688,624.958984 C89.5507812,628.149089 88.5823568,631.510091 88.0126953,635.041992 C87.4430339,638.573893 87.1582031,642.048828 87.1582031,645.466797 C87.1582031,653.442057 89.7216797,659.765299 94.8486328,664.436523 C99.9755859,669.107747 106.86849,671.443359 115.527344,671.443359 Z M187.646484,519.34375 L235.498047,376.814453 L243.359375,376.814453 L291.210938,519.34375 L187.646484,519.34375 Z M479.541016,671.443359 C488.427734,671.443359 495.43457,669.50651 500.561523,665.632812 C505.688477,661.759115 509.847005,655.151042 513.037109,645.808594 L557.128906,524.8125 L758.789062,524.8125 L802.880859,645.808594 C806.070964,655.151042 810.172526,661.759115 815.185547,665.632812 C820.198568,669.50651 827.148438,671.443359 836.035156,671.443359 C845.14974,671.443359 852.38444,668.936849 857.739258,663.923828 C863.094076,658.910807 865.771484,652.07487 865.771484,643.416016 C865.771484,638.17513 864.518229,632.022786 862.011719,624.958984 L701.708984,198.396484 C697.607422,187.686849 692.02474,179.768555 684.960938,174.641602 C677.897135,169.514648 668.896484,166.951172 657.958984,166.951172 C636.767578,166.951172 622.412109,177.31901 614.892578,198.054688 L454.589844,625.300781 C452.083333,632.364583 450.830078,638.516927 450.830078,643.757812 C450.830078,652.416667 453.393555,659.195638 458.520508,664.094727 C463.647461,668.993815 470.654297,671.443359 479.541016,671.443359 Z M573.876953,473.201172 L656.933594,243.171875 L658.642578,243.171875 L741.699219,473.201172 L573.876953,473.201172 Z" id="Shape"></path>
            </g>
        </g>
    </g>
</svg>