<?xml version="1.0" encoding="UTF-8"?>
<svg width="1024px" height="1024px" viewBox="0 0 1024 1024" version="1.1" xmlns="http://www.w3.org/2000/svg" xmlns:xlink="http://www.w3.org/1999/xlink">
    <title>1 - Layer</title>
    <g id="Template---App-Icons" stroke="none" stroke-width="1" fill="none" fill-rule="evenodd">
        <g id="1---Layer" fill="color(display-p3 1.000 1.000 1.000)" fill-rule="nonzero">
            <g id="ô€¥" transform="translate(39, 94)">
                <path d="M503.466797,759.285156 C551.546224,759.285156 593.530273,753.987305 629.418945,743.391602 C665.307617,732.795898 693.277995,718.041667 713.330078,699.128906 C733.382161,680.216146 743.408203,658.227214 743.408203,633.162109 C743.408203,616.30013 740.50293,602.286458 734.692383,591.121094 C728.881836,579.955729 722.216797,570.214518 714.697266,561.897461 C707.177734,553.580404 700.512695,545.491211 694.702148,537.629883 C688.891602,529.768555 685.986328,520.938802 685.986328,511.140625 C685.986328,502.026042 690.771484,493.765951 700.341797,486.360352 C709.912109,478.954753 722.216797,471.60612 737.255859,464.314453 C752.294922,457.022786 768.245443,448.99056 785.107422,440.217773 C801.969401,431.444987 817.976888,421.020182 833.129883,408.943359 C848.282878,396.866536 860.644531,382.397135 870.214844,365.535156 C879.785156,348.673177 884.570312,328.507161 884.570312,305.037109 C884.570312,270.401693 876.025391,238.95638 858.935547,210.701172 C841.845703,182.445964 817.635091,158.178385 786.303711,137.898438 C754.972331,117.61849 717.488607,102.009766 673.852539,91.0722656 C630.216471,80.1347656 581.852214,74.6660156 528.759766,74.6660156 C459.033203,74.6660156 395.515951,82.9830729 338.208008,99.6171875 C280.900065,116.251302 231.567383,139.892253 190.209961,170.540039 C148.852539,201.187826 117.008464,237.874023 94.6777344,280.598633 C72.3470052,323.323242 61.1816406,370.776042 61.1816406,422.957031 C61.1816406,473.08724 71.7773438,518.774089 92.96875,560.017578 C114.160156,601.261068 144.352214,636.750977 183.544922,666.487305 C222.73763,696.223633 269.392904,719.124023 323.510742,735.188477 C377.628581,751.25293 437.613932,759.285156 503.466797,759.285156 Z M503.466797,700.837891 C445.589193,700.837891 393.123372,694.172852 346.069336,680.842773 C299.015299,667.512695 258.569336,648.599935 224.731445,624.104492 C190.893555,599.609049 164.916992,570.328451 146.801758,536.262695 C128.686523,502.19694 119.628906,464.428385 119.628906,422.957031 C119.628906,379.434896 129.256185,339.900391 148.510742,304.353516 C167.765299,268.806641 195.39388,238.272786 231.396484,212.751953 C267.399089,187.23112 310.522461,167.577799 360.766602,153.791992 C411.010742,140.006185 467.008464,133.113281 528.759766,133.113281 C588.688151,133.113281 640.926107,140.347982 685.473633,154.817383 C730.021159,169.286784 764.599609,189.395833 789.208984,215.144531 C813.818359,240.893229 826.123047,270.857422 826.123047,305.037109 C826.123047,324.861328 821.280924,341.438477 811.59668,354.768555 C801.912435,368.098633 789.493815,379.434896 774.34082,388.777344 C759.187826,398.119792 743.123372,406.607747 726.147461,414.241211 C709.171549,421.874674 693.05013,429.906901 677.783203,438.337891 C662.516276,446.76888 650.097656,456.737956 640.527344,468.245117 C630.957031,479.752279 626.171875,494.164714 626.171875,511.482422 C626.171875,526.065755 629.134115,538.541341 635.058594,548.90918 C640.983073,559.277018 647.81901,568.619466 655.566406,576.936523 C663.313802,585.253581 670.14974,593.456706 676.074219,601.545898 C681.998698,609.635091 684.960938,618.692708 684.960938,628.71875 C684.960938,650.59375 668.440755,668.082357 635.400391,681.18457 C602.360026,694.286784 558.382161,700.837891 503.466797,700.837891 Z M475.439453,620.173828 C492.757161,620.173828 508.59375,615.901367 522.949219,607.356445 C537.304688,598.811523 548.754883,587.361328 557.299805,573.005859 C565.844727,558.650391 570.117188,542.69987 570.117188,525.154297 C570.117188,508.064453 565.844727,492.341797 557.299805,477.986328 C548.754883,463.630859 537.304688,452.180664 522.949219,443.635742 C508.59375,435.09082 492.757161,430.818359 475.439453,430.818359 C458.121745,430.818359 442.285156,435.09082 427.929688,443.635742 C413.574219,452.180664 402.124023,463.630859 393.579102,477.986328 C385.03418,492.341797 380.761719,508.064453 380.761719,525.154297 C380.761719,542.69987 385.03418,558.650391 393.579102,573.005859 C402.124023,587.361328 413.574219,598.811523 427.929688,607.356445 C442.285156,615.901367 458.121745,620.173828 475.439453,620.173828 Z M475.439453,580.525391 C465.185547,580.525391 455.900065,578.075846 447.583008,573.176758 C439.265951,568.277669 432.657878,561.61263 427.758789,553.181641 C422.859701,544.750651 420.410156,535.408203 420.410156,525.154297 C420.410156,513.988932 422.973633,504.361654 428.100586,496.272461 C433.227539,488.183268 439.892578,481.916992 448.095703,477.473633 C456.298828,473.030273 465.185547,470.808594 474.755859,470.808594 C484.326172,470.580729 493.383789,472.63151 501.928711,476.960938 C510.473633,481.290365 517.366536,487.499674 522.607422,495.588867 C527.848307,503.67806 530.46875,513.533203 530.46875,525.154297 C530.46875,535.408203 528.019206,544.750651 523.120117,553.181641 C518.221029,561.61263 511.612956,568.277669 503.295898,573.176758 C494.978841,578.075846 485.693359,580.525391 475.439453,580.525391 Z M234.130859,469.783203 C249.625651,469.783203 262.898763,464.086589 273.950195,452.693359 C285.001628,441.30013 290.527344,427.85612 290.527344,412.361328 C290.527344,396.638672 285.058594,383.251628 274.121094,372.200195 C263.183594,361.148763 249.853516,355.623047 234.130859,355.623047 C218.408203,355.623047 204.964193,361.148763 193.798828,372.200195 C182.633464,383.251628 177.050781,396.638672 177.050781,412.361328 C177.050781,427.85612 182.633464,441.30013 193.798828,452.693359 C204.964193,464.086589 218.408203,469.783203 234.130859,469.783203 Z M358.886719,360.408203 C378.483073,360.408203 395.288086,353.458333 409.301758,339.558594 C423.31543,325.658854 430.322266,308.682943 430.322266,288.630859 C430.322266,268.806641 423.31543,252.001628 409.301758,238.21582 C395.288086,224.430013 378.483073,217.537109 358.886719,217.537109 C338.834635,217.537109 321.744792,224.430013 307.617188,238.21582 C293.489583,252.001628 286.425781,268.806641 286.425781,288.630859 C286.425781,308.682943 293.489583,325.658854 307.617188,339.558594 C321.744792,353.458333 338.834635,360.408203 358.886719,360.408203 Z M531.835938,305.037109 C548.014323,305.037109 561.686198,299.454427 572.851562,288.289062 C584.016927,277.123698 589.599609,263.565755 589.599609,247.615234 C589.599609,231.664714 584.016927,218.106771 572.851562,206.941406 C561.686198,195.776042 548.014323,190.193359 531.835938,190.193359 C516.113281,190.193359 502.555339,195.776042 491.162109,206.941406 C479.76888,218.106771 474.072266,231.664714 474.072266,247.615234 C474.072266,263.565755 479.76888,277.123698 491.162109,288.289062 C502.555339,299.454427 516.113281,305.037109 531.835938,305.037109 Z M688.037109,326.570312 C700.797526,326.570312 711.67806,322.069987 720.678711,313.069336 C729.679362,304.068685 734.179688,293.074219 734.179688,280.085938 C734.179688,267.325521 729.679362,256.331055 720.678711,247.102539 C711.67806,237.874023 700.797526,233.259766 688.037109,233.259766 C675.048828,233.259766 663.94043,237.874023 654.711914,247.102539 C645.483398,256.331055 640.869141,267.325521 640.869141,280.085938 C640.869141,293.074219 645.483398,304.068685 654.711914,313.069336 C663.94043,322.069987 675.048828,326.570312 688.037109,326.570312 Z" id="Shape"></path>
            </g>
        </g>
    </g>
</svg>